<svg xmlns="http://www.w3.org/2000/svg" xmlns:xlink="http://www.w3.org/1999/xlink" xmlns:s="https://github.com/nturley/netlistsvg" width="370" height="606">
  <style>svg {
    stroke:#000;
    fill:none;
  }
  text {
    fill:#000;
    stroke:none;
    font-size:10px;
    font-weight: bold;
    font-family: "Courier New", monospace;
  }
  .nodelabel {
    text-anchor: middle;
  }
  .inputPortLabel {
    text-anchor: end;
  }
  .splitjoinBody {
    fill:#000;
  }</style>
  <g s:type="and" transform="translate(209,12)" s:width="30" s:height="25" id="cell_$abc$407$auto$blifparse.cc:396:parse_blif$408">
    <s:alias val="$and"/>
    <s:alias val="$logic_and"/>
    <s:alias val="$_AND_"/>
    <path d="M0,0 L0,25 L15,25 A15 12.5 0 0 0 15,0 Z" class="cell_$abc$407$auto$blifparse.cc:396:parse_blif$408"/>
    <g s:x="0" s:y="5" s:pid="A"/>
    <g s:x="0" s:y="20" s:pid="B"/>
    <g s:x="30" s:y="12.5" s:pid="Y"/>
  </g>
  <g s:type="and" transform="translate(209,72)" s:width="30" s:height="25" id="cell_$abc$407$auto$blifparse.cc:396:parse_blif$409">
    <s:alias val="$and"/>
    <s:alias val="$logic_and"/>
    <s:alias val="$_AND_"/>
    <path d="M0,0 L0,25 L15,25 A15 12.5 0 0 0 15,0 Z" class="cell_$abc$407$auto$blifparse.cc:396:parse_blif$409"/>
    <g s:x="0" s:y="5" s:pid="A"/>
    <g s:x="0" s:y="20" s:pid="B"/>
    <g s:x="30" s:y="12.5" s:pid="Y"/>
  </g>
  <g s:type="and" transform="translate(209,269)" s:width="30" s:height="25" id="cell_$abc$407$auto$blifparse.cc:396:parse_blif$410">
    <s:alias val="$and"/>
    <s:alias val="$logic_and"/>
    <s:alias val="$_AND_"/>
    <path d="M0,0 L0,25 L15,25 A15 12.5 0 0 0 15,0 Z" class="cell_$abc$407$auto$blifparse.cc:396:parse_blif$410"/>
    <g s:x="0" s:y="5" s:pid="A"/>
    <g s:x="0" s:y="20" s:pid="B"/>
    <g s:x="30" s:y="12.5" s:pid="Y"/>
  </g>
  <g s:type="and" transform="translate(209,329)" s:width="30" s:height="25" id="cell_$abc$407$auto$blifparse.cc:396:parse_blif$411">
    <s:alias val="$and"/>
    <s:alias val="$logic_and"/>
    <s:alias val="$_AND_"/>
    <path d="M0,0 L0,25 L15,25 A15 12.5 0 0 0 15,0 Z" class="cell_$abc$407$auto$blifparse.cc:396:parse_blif$411"/>
    <g s:x="0" s:y="5" s:pid="A"/>
    <g s:x="0" s:y="20" s:pid="B"/>
    <g s:x="30" s:y="12.5" s:pid="Y"/>
  </g>
  <g s:type="and" transform="translate(209,389)" s:width="30" s:height="25" id="cell_$abc$407$auto$blifparse.cc:396:parse_blif$412">
    <s:alias val="$and"/>
    <s:alias val="$logic_and"/>
    <s:alias val="$_AND_"/>
    <path d="M0,0 L0,25 L15,25 A15 12.5 0 0 0 15,0 Z" class="cell_$abc$407$auto$blifparse.cc:396:parse_blif$412"/>
    <g s:x="0" s:y="5" s:pid="A"/>
    <g s:x="0" s:y="20" s:pid="B"/>
    <g s:x="30" s:y="12.5" s:pid="Y"/>
  </g>
  <g s:type="and" transform="translate(209,449)" s:width="30" s:height="25" id="cell_$abc$407$auto$blifparse.cc:396:parse_blif$413">
    <s:alias val="$and"/>
    <s:alias val="$logic_and"/>
    <s:alias val="$_AND_"/>
    <path d="M0,0 L0,25 L15,25 A15 12.5 0 0 0 15,0 Z" class="cell_$abc$407$auto$blifparse.cc:396:parse_blif$413"/>
    <g s:x="0" s:y="5" s:pid="A"/>
    <g s:x="0" s:y="20" s:pid="B"/>
    <g s:x="30" s:y="12.5" s:pid="Y"/>
  </g>
  <g s:type="and" transform="translate(209,509)" s:width="30" s:height="25" id="cell_$abc$407$auto$blifparse.cc:396:parse_blif$414">
    <s:alias val="$and"/>
    <s:alias val="$logic_and"/>
    <s:alias val="$_AND_"/>
    <path d="M0,0 L0,25 L15,25 A15 12.5 0 0 0 15,0 Z" class="cell_$abc$407$auto$blifparse.cc:396:parse_blif$414"/>
    <g s:x="0" s:y="5" s:pid="A"/>
    <g s:x="0" s:y="20" s:pid="B"/>
    <g s:x="30" s:y="12.5" s:pid="Y"/>
  </g>
  <g s:type="and" transform="translate(209,569)" s:width="30" s:height="25" id="cell_$abc$407$auto$blifparse.cc:396:parse_blif$415">
    <s:alias val="$and"/>
    <s:alias val="$logic_and"/>
    <s:alias val="$_AND_"/>
    <path d="M0,0 L0,25 L15,25 A15 12.5 0 0 0 15,0 Z" class="cell_$abc$407$auto$blifparse.cc:396:parse_blif$415"/>
    <g s:x="0" s:y="5" s:pid="A"/>
    <g s:x="0" s:y="20" s:pid="B"/>
    <g s:x="30" s:y="12.5" s:pid="Y"/>
  </g>
  <g s:type="inputExt" transform="translate(12,249)" s:width="30" s:height="20" id="cell_A">
    <text x="15" y="-4" class="nodelabel cell_A" s:attribute="ref">A</text>
    <s:alias val="$_inputExt_"/>
    <path d="M0,0 L0,20 L15,20 L30,10 L15,0 Z" class="cell_A"/>
    <g s:x="28" s:y="10" s:pid="Y"/>
  </g>
  <g s:type="inputExt" transform="translate(12,57)" s:width="30" s:height="20" id="cell_B">
    <text x="15" y="-4" class="nodelabel cell_B" s:attribute="ref">B</text>
    <s:alias val="$_inputExt_"/>
    <path d="M0,0 L0,20 L15,20 L30,10 L15,0 Z" class="cell_B"/>
    <g s:x="28" s:y="10" s:pid="Y"/>
  </g>
  <g s:type="outputExt" transform="translate(322,281.5)" s:width="30" s:height="20" id="cell_Result">
    <text x="15" y="-4" class="nodelabel cell_Result" s:attribute="ref">Result</text>
    <s:alias val="$_outputExt_"/>
    <path d="M30,0 L30,20 L15,20 L0,10 L15,0 Z" class="cell_Result"/>
    <g s:x="0" s:y="10" s:pid="A"/>
  </g>
  <g s:type="join" transform="translate(279,271)" s:width="4" s:height="40" id="cell_$join$,18,19,20,21,22,23,24,25,">
    <rect width="5" height="160" class="splitjoinBody" s:generic="body"/>
    <s:alias val="$_join_"/>
    <g s:x="5" s:y="20" s:pid="out"/>
    <g transform="translate(0,10)" s:x="0" s:y="10" s:pid="in0">
      <text x="-3" y="-4" class="inputPortLabel">0</text>
    </g>
    <g transform="translate(0,30)" s:x="0" s:y="10" s:pid="in0">
      <text x="-3" y="-4" class="inputPortLabel">1</text>
    </g>
    <g transform="translate(0,50)" s:x="0" s:y="10" s:pid="in0">
      <text x="-3" y="-4" class="inputPortLabel">2</text>
    </g>
    <g transform="translate(0,70)" s:x="0" s:y="10" s:pid="in0">
      <text x="-3" y="-4" class="inputPortLabel">3</text>
    </g>
    <g transform="translate(0,90)" s:x="0" s:y="10" s:pid="in0">
      <text x="-3" y="-4" class="inputPortLabel">4</text>
    </g>
    <g transform="translate(0,110)" s:x="0" s:y="10" s:pid="in0">
      <text x="-3" y="-4" class="inputPortLabel">5</text>
    </g>
    <g transform="translate(0,130)" s:x="0" s:y="10" s:pid="in0">
      <text x="-3" y="-4" class="inputPortLabel">6</text>
    </g>
    <g transform="translate(0,150)" s:x="0" s:y="10" s:pid="in0">
      <text x="-3" y="-4" class="inputPortLabel">7</text>
    </g>
  </g>
  <g s:type="split" transform="translate(77,46.5)" s:width="5" s:height="40" id="cell_$split$,10,11,12,13,14,15,16,17,">
    <rect width="5" height="160" class="splitjoinBody" s:generic="body"/>
    <s:alias val="$_split_"/>
    <g s:x="0" s:y="20" s:pid="in"/>
    <g transform="translate(4,10)" s:x="4" s:y="10" s:pid="out0">
      <text x="5" y="-4">0</text>
    </g>
    <g transform="translate(4,30)" s:x="4" s:y="10" s:pid="out0">
      <text x="5" y="-4">1</text>
    </g>
    <g transform="translate(4,50)" s:x="4" s:y="10" s:pid="out0">
      <text x="5" y="-4">2</text>
    </g>
    <g transform="translate(4,70)" s:x="4" s:y="10" s:pid="out0">
      <text x="5" y="-4">3</text>
    </g>
    <g transform="translate(4,90)" s:x="4" s:y="10" s:pid="out0">
      <text x="5" y="-4">4</text>
    </g>
    <g transform="translate(4,110)" s:x="4" s:y="10" s:pid="out0">
      <text x="5" y="-4">5</text>
    </g>
    <g transform="translate(4,130)" s:x="4" s:y="10" s:pid="out0">
      <text x="5" y="-4">6</text>
    </g>
    <g transform="translate(4,150)" s:x="4" s:y="10" s:pid="out0">
      <text x="5" y="-4">7</text>
    </g>
  </g>
  <g s:type="split" transform="translate(77,238.5)" s:width="5" s:height="40" id="cell_$split$,2,3,4,5,6,7,8,9,">
    <rect width="5" height="160" class="splitjoinBody" s:generic="body"/>
    <s:alias val="$_split_"/>
    <g s:x="0" s:y="20" s:pid="in"/>
    <g transform="translate(4,10)" s:x="4" s:y="10" s:pid="out0">
      <text x="5" y="-4">0</text>
    </g>
    <g transform="translate(4,30)" s:x="4" s:y="10" s:pid="out0">
      <text x="5" y="-4">1</text>
    </g>
    <g transform="translate(4,50)" s:x="4" s:y="10" s:pid="out0">
      <text x="5" y="-4">2</text>
    </g>
    <g transform="translate(4,70)" s:x="4" s:y="10" s:pid="out0">
      <text x="5" y="-4">3</text>
    </g>
    <g transform="translate(4,90)" s:x="4" s:y="10" s:pid="out0">
      <text x="5" y="-4">4</text>
    </g>
    <g transform="translate(4,110)" s:x="4" s:y="10" s:pid="out0">
      <text x="5" y="-4">5</text>
    </g>
    <g transform="translate(4,130)" s:x="4" s:y="10" s:pid="out0">
      <text x="5" y="-4">6</text>
    </g>
    <g transform="translate(4,150)" s:x="4" s:y="10" s:pid="out0">
      <text x="5" y="-4">7</text>
    </g>
  </g>
  <line x1="81.5" x2="81.5" y1="56.5" y2="17" class="net_10"/>
  <line x1="81.5" x2="209" y1="17" y2="17" class="net_10"/>
  <line x1="81.5" x2="81.5" y1="248.5" y2="226.5" class="net_2"/>
  <line x1="81.5" x2="109" y1="226.5" y2="226.5" class="net_2"/>
  <line x1="109" x2="109" y1="226.5" y2="32" class="net_2"/>
  <line x1="109" x2="209" y1="32" y2="32" class="net_2"/>
  <line x1="82" x2="209" y1="77" y2="77" class="net_11"/>
  <line x1="82" x2="189" y1="269" y2="269" class="net_3"/>
  <line x1="189" x2="189" y1="269" y2="92" class="net_3"/>
  <line x1="189" x2="209" y1="92" y2="92" class="net_3"/>
  <line x1="82" x2="199" y1="97" y2="97" class="net_12"/>
  <line x1="199" x2="199" y1="97" y2="274" class="net_12"/>
  <line x1="199" x2="209" y1="274" y2="274" class="net_12"/>
  <line x1="82" x2="209" y1="289" y2="289" class="net_4"/>
  <line x1="82" x2="179" y1="117" y2="117" class="net_13"/>
  <line x1="179" x2="179" y1="117" y2="334" class="net_13"/>
  <line x1="179" x2="209" y1="334" y2="334" class="net_13"/>
  <line x1="82" x2="159" y1="309" y2="309" class="net_5"/>
  <line x1="159" x2="159" y1="309" y2="349" class="net_5"/>
  <line x1="159" x2="209" y1="349" y2="349" class="net_5"/>
  <line x1="82" x2="169" y1="137" y2="137" class="net_14"/>
  <line x1="169" x2="169" y1="137" y2="394" class="net_14"/>
  <line x1="169" x2="209" y1="394" y2="394" class="net_14"/>
  <line x1="82" x2="139" y1="329" y2="329" class="net_6"/>
  <line x1="139" x2="139" y1="329" y2="409" class="net_6"/>
  <line x1="139" x2="209" y1="409" y2="409" class="net_6"/>
  <line x1="82" x2="149" y1="157" y2="157" class="net_15"/>
  <line x1="149" x2="149" y1="157" y2="454" class="net_15"/>
  <line x1="149" x2="209" y1="454" y2="454" class="net_15"/>
  <line x1="82" x2="119" y1="349" y2="349" class="net_7"/>
  <line x1="119" x2="119" y1="349" y2="469" class="net_7"/>
  <line x1="119" x2="209" y1="469" y2="469" class="net_7"/>
  <line x1="82" x2="129" y1="177" y2="177" class="net_16"/>
  <line x1="129" x2="129" y1="177" y2="514" class="net_16"/>
  <line x1="129" x2="209" y1="514" y2="514" class="net_16"/>
  <line x1="82" x2="109" y1="369" y2="369" class="net_8"/>
  <line x1="109" x2="109" y1="369" y2="529" class="net_8"/>
  <line x1="109" x2="209" y1="529" y2="529" class="net_8"/>
  <line x1="81.5" x2="81.5" y1="197.5" y2="216.5" class="net_17"/>
  <line x1="81.5" x2="99" y1="216.5" y2="216.5" class="net_17"/>
  <line x1="99" x2="99" y1="216.5" y2="574" class="net_17"/>
  <line x1="99" x2="209" y1="574" y2="574" class="net_17"/>
  <line x1="81.5" x2="81.5" y1="389.5" y2="589" class="net_9"/>
  <line x1="81.5" x2="209" y1="589" y2="589" class="net_9"/>
  <line x1="285" x2="322" y1="291.5" y2="291.5" class="net_18,19,20,21,22,23,24,25"/>
  <line x1="239" x2="279.5" y1="24.5" y2="24.5" class="net_18"/>
  <line x1="279.5" x2="279.5" y1="24.5" y2="281" class="net_18"/>
  <line x1="239" x2="259" y1="84.5" y2="84.5" class="net_19"/>
  <line x1="259" x2="259" y1="84.5" y2="301.5" class="net_19"/>
  <line x1="259" x2="279" y1="301.5" y2="301.5" class="net_19"/>
  <line x1="239" x2="249" y1="281.5" y2="281.5" class="net_20"/>
  <line x1="249" x2="249" y1="281.5" y2="321.5" class="net_20"/>
  <line x1="249" x2="279" y1="321.5" y2="321.5" class="net_20"/>
  <line x1="239" x2="279" y1="341.5" y2="341.5" class="net_21"/>
  <line x1="239" x2="249" y1="401.5" y2="401.5" class="net_22"/>
  <line x1="249" x2="249" y1="401.5" y2="361.5" class="net_22"/>
  <line x1="249" x2="279" y1="361.5" y2="361.5" class="net_22"/>
  <line x1="239" x2="259" y1="461.5" y2="461.5" class="net_23"/>
  <line x1="259" x2="259" y1="461.5" y2="381.5" class="net_23"/>
  <line x1="259" x2="279" y1="381.5" y2="381.5" class="net_23"/>
  <line x1="239" x2="269" y1="521.5" y2="521.5" class="net_24"/>
  <line x1="269" x2="269" y1="521.5" y2="401.5" class="net_24"/>
  <line x1="269" x2="279" y1="401.5" y2="401.5" class="net_24"/>
  <line x1="239" x2="279.5" y1="581.5" y2="581.5" class="net_25"/>
  <line x1="279.5" x2="279.5" y1="581.5" y2="422" class="net_25"/>
  <line x1="40" x2="77" y1="67" y2="67" class="net_10,11,12,13,14,15,16,17"/>
  <line x1="40" x2="77" y1="259" y2="259" class="net_2,3,4,5,6,7,8,9"/>
</svg>
