<svg xmlns="http://www.w3.org/2000/svg" xmlns:xlink="http://www.w3.org/1999/xlink" xmlns:s="https://github.com/nturley/netlistsvg" width="336" height="199">
  <style>svg {
    stroke:#000;
    fill:none;
  }
  text {
    fill:#000;
    stroke:none;
    font-size:10px;
    font-weight: bold;
    font-family: "Courier New", monospace;
  }
  .nodelabel {
    text-anchor: middle;
  }
  .inputPortLabel {
    text-anchor: end;
  }
  .splitjoinBody {
    fill:#000;
  }</style>
  <g s:type="reduce_nxor" transform="translate(77,12)" s:width="33" s:height="25" id="cell_$abc$89$auto$blifparse.cc:396:parse_blif$90">
    <s:alias val="$xnor"/>
    <s:alias val="$reduce_xnor"/>
    <s:alias val="$_XNOR_"/>
    <path d="M3,0 A30 25 0 0 1 3,25 A30 25 0 0 0 33,12.5 A30 25 0 0 0 3,0" class="cell_$abc$89$auto$blifparse.cc:396:parse_blif$90"/>
    <path d="M0,0 A30 25 0 0 1 0,25" class="cell_$abc$89$auto$blifparse.cc:396:parse_blif$90"/>
    <circle cx="35" cy="12.5" r="3" class="cell_$abc$89$auto$blifparse.cc:396:parse_blif$90"/>
    <g s:x="3" s:y="5" s:pid="A"/>
    <g s:x="3" s:y="20" s:pid="B"/>
    <g s:x="38" s:y="12.5" s:pid="Y"/>
  </g>
  <g s:type="reduce_nxor" transform="translate(221,56)" s:width="33" s:height="25" id="cell_$abc$89$auto$blifparse.cc:396:parse_blif$91">
    <s:alias val="$xnor"/>
    <s:alias val="$reduce_xnor"/>
    <s:alias val="$_XNOR_"/>
    <path d="M3,0 A30 25 0 0 1 3,25 A30 25 0 0 0 33,12.5 A30 25 0 0 0 3,0" class="cell_$abc$89$auto$blifparse.cc:396:parse_blif$91"/>
    <path d="M0,0 A30 25 0 0 1 0,25" class="cell_$abc$89$auto$blifparse.cc:396:parse_blif$91"/>
    <circle cx="35" cy="12.5" r="3" class="cell_$abc$89$auto$blifparse.cc:396:parse_blif$91"/>
    <g s:x="3" s:y="5" s:pid="A"/>
    <g s:x="3" s:y="20" s:pid="B"/>
    <g s:x="38" s:y="12.5" s:pid="Y"/>
  </g>
  <g s:type="and" transform="translate(152,157)" s:width="30" s:height="25" id="cell_$abc$89$auto$blifparse.cc:396:parse_blif$92">
    <s:alias val="$and"/>
    <s:alias val="$logic_and"/>
    <s:alias val="$_AND_"/>
    <path d="M0,0 L0,25 L15,25 A15 12.5 0 0 0 15,0 Z" class="cell_$abc$89$auto$blifparse.cc:396:parse_blif$92"/>
    <g s:x="0" s:y="5" s:pid="A"/>
    <g s:x="0" s:y="20" s:pid="B"/>
    <g s:x="30" s:y="12.5" s:pid="Y"/>
  </g>
  <g s:type="nand" transform="translate(150,87)" s:width="30" s:height="25" id="cell_$abc$89$auto$blifparse.cc:396:parse_blif$93">
    <s:alias val="$nand"/>
    <s:alias val="$logic_nand"/>
    <s:alias val="$_NAND_"/>
    <s:alias val="$_ANDNOT_"/>
    <path d="M0,0 L0,25 L15,25 A15 12.5 0 0 0 15,0 Z" class="cell_$abc$89$auto$blifparse.cc:396:parse_blif$93"/>
    <circle cx="34" cy="12.5" r="3" class="cell_$abc$89$auto$blifparse.cc:396:parse_blif$93"/>
    <g s:x="0" s:y="5" s:pid="A"/>
    <g s:x="0" s:y="20" s:pid="B"/>
    <g s:x="36" s:y="12.5" s:pid="Y"/>
  </g>
  <g s:type="or" transform="translate(223.66666666666666,149.5)" s:width="30" s:height="25" id="cell_$abc$89$auto$blifparse.cc:396:parse_blif$94">
    <s:alias val="$or"/>
    <s:alias val="$logic_or"/>
    <s:alias val="$_OR_"/>
    <path d="M0,25 L0,25 L15,25 A15 12.5 0 0 0 15,0 L0,0" class="cell_$abc$89$auto$blifparse.cc:396:parse_blif$94"/>
    <path d="M0,0 A30 25 0 0 1 0,25" class="cell_$abc$89$auto$blifparse.cc:396:parse_blif$94"/>
    <g s:x="3" s:y="5" s:pid="A"/>
    <g s:x="3" s:y="20" s:pid="B"/>
    <g s:x="30" s:y="12.5" s:pid="Y"/>
  </g>
  <g s:type="inputExt" transform="translate(12,167)" s:width="30" s:height="20" id="cell_A">
    <text x="15" y="-4" class="nodelabel cell_A" s:attribute="ref">A</text>
    <s:alias val="$_inputExt_"/>
    <path d="M0,0 L0,20 L15,20 L30,10 L15,0 Z" class="cell_A"/>
    <g s:x="28" s:y="10" s:pid="Y"/>
  </g>
  <g s:type="inputExt" transform="translate(12,102)" s:width="30" s:height="20" id="cell_B">
    <text x="15" y="-4" class="nodelabel cell_B" s:attribute="ref">B</text>
    <s:alias val="$_inputExt_"/>
    <path d="M0,0 L0,20 L15,20 L30,10 L15,0 Z" class="cell_B"/>
    <g s:x="28" s:y="10" s:pid="Y"/>
  </g>
  <g s:type="inputExt" transform="translate(80,82)" s:width="30" s:height="20" id="cell_Cin">
    <text x="15" y="-4" class="nodelabel cell_Cin" s:attribute="ref">Cin</text>
    <s:alias val="$_inputExt_"/>
    <path d="M0,0 L0,20 L15,20 L30,10 L15,0 Z" class="cell_Cin"/>
    <g s:x="28" s:y="10" s:pid="Y"/>
  </g>
  <g s:type="outputExt" transform="translate(294,58.5)" s:width="30" s:height="20" id="cell_Sum">
    <text x="15" y="-4" class="nodelabel cell_Sum" s:attribute="ref">Sum</text>
    <s:alias val="$_outputExt_"/>
    <path d="M30,0 L30,20 L15,20 L0,10 L15,0 Z" class="cell_Sum"/>
    <g s:x="0" s:y="10" s:pid="A"/>
  </g>
  <g s:type="outputExt" transform="translate(294,152)" s:width="30" s:height="20" id="cell_Cout">
    <text x="15" y="-4" class="nodelabel cell_Cout" s:attribute="ref">Cout</text>
    <s:alias val="$_outputExt_"/>
    <path d="M30,0 L30,20 L15,20 L0,10 L15,0 Z" class="cell_Cout"/>
    <g s:x="0" s:y="10" s:pid="A"/>
  </g>
  <line x1="40" x2="52" y1="112" y2="112" class="net_3"/>
  <line x1="52" x2="52" y1="112" y2="17" class="net_3"/>
  <circle cx="52" cy="112" r="2" style="fill:#000" class="net_3"/>
  <line x1="52" x2="80" y1="17" y2="17" class="net_3"/>
  <line x1="40" x2="125" y1="112" y2="112" class="net_3"/>
  <line x1="125" x2="125" y1="112" y2="162" class="net_3"/>
  <line x1="125" x2="152" y1="162" y2="162" class="net_3"/>
  <line x1="40" x2="62" y1="177" y2="177" class="net_2"/>
  <line x1="62" x2="62" y1="177" y2="32" class="net_2"/>
  <circle cx="62" cy="177" r="2" style="fill:#000" class="net_2"/>
  <line x1="62" x2="80" y1="32" y2="32" class="net_2"/>
  <line x1="40" x2="152" y1="177" y2="177" class="net_2"/>
  <line x1="115" x2="196" y1="24.5" y2="24.5" class="net_7"/>
  <line x1="196" x2="196" y1="24.5" y2="61" class="net_7"/>
  <line x1="196" x2="224" y1="61" y2="61" class="net_7"/>
  <line x1="115" x2="125" y1="24.5" y2="24.5" class="net_7"/>
  <line x1="125" x2="125" y1="24.5" y2="107" class="net_7"/>
  <circle cx="125" cy="24.5" r="2" style="fill:#000" class="net_7"/>
  <line x1="125" x2="150" y1="107" y2="107" class="net_7"/>
  <line x1="108" x2="135" y1="92" y2="92" class="net_4"/>
  <line x1="135" x2="135" y1="92" y2="76" class="net_4"/>
  <circle cx="135" cy="92" r="2" style="fill:#000" class="net_4"/>
  <line x1="135" x2="224" y1="76" y2="76" class="net_4"/>
  <line x1="108" x2="150" y1="92" y2="92" class="net_4"/>
  <line x1="186" x2="196" y1="99.5" y2="99.5" class="net_9"/>
  <line x1="196" x2="196" y1="99.5" y2="154.5" class="net_9"/>
  <line x1="196" x2="226.66666666666666" y1="154.5" y2="154.5" class="net_9"/>
  <line x1="182" x2="226.66666666666666" y1="169.5" y2="169.5" class="net_8"/>
  <line x1="259" x2="294" y1="68.5" y2="68.5" class="net_5"/>
  <line x1="253.66666666666666" x2="294" y1="162" y2="162" class="net_6"/>
</svg>
