<svg xmlns="http://www.w3.org/2000/svg" xmlns:xlink="http://www.w3.org/1999/xlink" xmlns:s="https://github.com/nturley/netlistsvg" width="1073" height="1103.5">
  <style>svg {
    stroke:#000;
    fill:none;
  }
  text {
    fill:#000;
    stroke:none;
    font-size:10px;
    font-weight: bold;
    font-family: "Courier New", monospace;
  }
  .nodelabel {
    text-anchor: middle;
  }
  .inputPortLabel {
    text-anchor: end;
  }
  .splitjoinBody {
    fill:#000;
  }</style>
  <g s:type="and" transform="translate(233,229)" s:width="30" s:height="25" id="cell_$abc$304$auto$blifparse.cc:396:parse_blif$305">
    <s:alias val="$and"/>
    <s:alias val="$logic_and"/>
    <s:alias val="$_AND_"/>
    <path d="M0,0 L0,25 L15,25 A15 12.5 0 0 0 15,0 Z" class="cell_$abc$304$auto$blifparse.cc:396:parse_blif$305"/>
    <g s:x="0" s:y="5" s:pid="A"/>
    <g s:x="0" s:y="20" s:pid="B"/>
    <g s:x="30" s:y="12.5" s:pid="Y"/>
  </g>
  <g s:type="and" transform="translate(324.3333333333333,629.5)" s:width="30" s:height="25" id="cell_$abc$304$auto$blifparse.cc:396:parse_blif$306">
    <s:alias val="$and"/>
    <s:alias val="$logic_and"/>
    <s:alias val="$_AND_"/>
    <path d="M0,0 L0,25 L15,25 A15 12.5 0 0 0 15,0 Z" class="cell_$abc$304$auto$blifparse.cc:396:parse_blif$306"/>
    <g s:x="0" s:y="5" s:pid="A"/>
    <g s:x="0" s:y="20" s:pid="B"/>
    <g s:x="30" s:y="12.5" s:pid="Y"/>
  </g>
  <g s:type="and" transform="translate(434.3333333333333,815.5)" s:width="30" s:height="25" id="cell_$abc$304$auto$blifparse.cc:396:parse_blif$307">
    <s:alias val="$and"/>
    <s:alias val="$logic_and"/>
    <s:alias val="$_AND_"/>
    <path d="M0,0 L0,25 L15,25 A15 12.5 0 0 0 15,0 Z" class="cell_$abc$304$auto$blifparse.cc:396:parse_blif$307"/>
    <g s:x="0" s:y="5" s:pid="A"/>
    <g s:x="0" s:y="20" s:pid="B"/>
    <g s:x="30" s:y="12.5" s:pid="Y"/>
  </g>
  <g s:type="and" transform="translate(569.3333333333333,986.5)" s:width="30" s:height="25" id="cell_$abc$304$auto$blifparse.cc:396:parse_blif$308">
    <s:alias val="$and"/>
    <s:alias val="$logic_and"/>
    <s:alias val="$_AND_"/>
    <path d="M0,0 L0,25 L15,25 A15 12.5 0 0 0 15,0 Z" class="cell_$abc$304$auto$blifparse.cc:396:parse_blif$308"/>
    <g s:x="0" s:y="5" s:pid="A"/>
    <g s:x="0" s:y="20" s:pid="B"/>
    <g s:x="30" s:y="12.5" s:pid="Y"/>
  </g>
  <g s:type="and" transform="translate(233,289)" s:width="30" s:height="25" id="cell_$abc$304$auto$blifparse.cc:396:parse_blif$309">
    <s:alias val="$and"/>
    <s:alias val="$logic_and"/>
    <s:alias val="$_AND_"/>
    <path d="M0,0 L0,25 L15,25 A15 12.5 0 0 0 15,0 Z" class="cell_$abc$304$auto$blifparse.cc:396:parse_blif$309"/>
    <g s:x="0" s:y="5" s:pid="A"/>
    <g s:x="0" s:y="20" s:pid="B"/>
    <g s:x="30" s:y="12.5" s:pid="Y"/>
  </g>
  <g s:type="and" transform="translate(324.3333333333333,689.5)" s:width="30" s:height="25" id="cell_$abc$304$auto$blifparse.cc:396:parse_blif$310">
    <s:alias val="$and"/>
    <s:alias val="$logic_and"/>
    <s:alias val="$_AND_"/>
    <path d="M0,0 L0,25 L15,25 A15 12.5 0 0 0 15,0 Z" class="cell_$abc$304$auto$blifparse.cc:396:parse_blif$310"/>
    <g s:x="0" s:y="5" s:pid="A"/>
    <g s:x="0" s:y="20" s:pid="B"/>
    <g s:x="30" s:y="12.5" s:pid="Y"/>
  </g>
  <g s:type="and" transform="translate(434.3333333333333,875.5)" s:width="30" s:height="25" id="cell_$abc$304$auto$blifparse.cc:396:parse_blif$311">
    <s:alias val="$and"/>
    <s:alias val="$logic_and"/>
    <s:alias val="$_AND_"/>
    <path d="M0,0 L0,25 L15,25 A15 12.5 0 0 0 15,0 Z" class="cell_$abc$304$auto$blifparse.cc:396:parse_blif$311"/>
    <g s:x="0" s:y="5" s:pid="A"/>
    <g s:x="0" s:y="20" s:pid="B"/>
    <g s:x="30" s:y="12.5" s:pid="Y"/>
  </g>
  <g s:type="and" transform="translate(569.3333333333333,1046.5)" s:width="30" s:height="25" id="cell_$abc$304$auto$blifparse.cc:396:parse_blif$312">
    <s:alias val="$and"/>
    <s:alias val="$logic_and"/>
    <s:alias val="$_AND_"/>
    <path d="M0,0 L0,25 L15,25 A15 12.5 0 0 0 15,0 Z" class="cell_$abc$304$auto$blifparse.cc:396:parse_blif$312"/>
    <g s:x="0" s:y="5" s:pid="A"/>
    <g s:x="0" s:y="20" s:pid="B"/>
    <g s:x="30" s:y="12.5" s:pid="Y"/>
  </g>
  <g s:type="and" transform="translate(434.3333333333333,83)" s:width="30" s:height="25" id="cell_$abc$304$auto$blifparse.cc:396:parse_blif$313">
    <s:alias val="$and"/>
    <s:alias val="$logic_and"/>
    <s:alias val="$_AND_"/>
    <path d="M0,0 L0,25 L15,25 A15 12.5 0 0 0 15,0 Z" class="cell_$abc$304$auto$blifparse.cc:396:parse_blif$313"/>
    <g s:x="0" s:y="5" s:pid="A"/>
    <g s:x="0" s:y="20" s:pid="B"/>
    <g s:x="30" s:y="12.5" s:pid="Y"/>
  </g>
  <g s:type="and" transform="translate(569.3333333333333,183)" s:width="30" s:height="25" id="cell_$abc$304$auto$blifparse.cc:396:parse_blif$314">
    <s:alias val="$and"/>
    <s:alias val="$logic_and"/>
    <s:alias val="$_AND_"/>
    <path d="M0,0 L0,25 L15,25 A15 12.5 0 0 0 15,0 Z" class="cell_$abc$304$auto$blifparse.cc:396:parse_blif$314"/>
    <g s:x="0" s:y="5" s:pid="A"/>
    <g s:x="0" s:y="20" s:pid="B"/>
    <g s:x="30" s:y="12.5" s:pid="Y"/>
  </g>
  <g s:type="and" transform="translate(734.3333333333334,787.5)" s:width="30" s:height="25" id="cell_$abc$304$auto$blifparse.cc:396:parse_blif$315">
    <s:alias val="$and"/>
    <s:alias val="$logic_and"/>
    <s:alias val="$_AND_"/>
    <path d="M0,0 L0,25 L15,25 A15 12.5 0 0 0 15,0 Z" class="cell_$abc$304$auto$blifparse.cc:396:parse_blif$315"/>
    <g s:x="0" s:y="5" s:pid="A"/>
    <g s:x="0" s:y="20" s:pid="B"/>
    <g s:x="30" s:y="12.5" s:pid="Y"/>
  </g>
  <g s:type="and" transform="translate(849.3333333333334,44)" s:width="30" s:height="25" id="cell_$abc$304$auto$blifparse.cc:396:parse_blif$316">
    <s:alias val="$and"/>
    <s:alias val="$logic_and"/>
    <s:alias val="$_AND_"/>
    <path d="M0,0 L0,25 L15,25 A15 12.5 0 0 0 15,0 Z" class="cell_$abc$304$auto$blifparse.cc:396:parse_blif$316"/>
    <g s:x="0" s:y="5" s:pid="A"/>
    <g s:x="0" s:y="20" s:pid="B"/>
    <g s:x="30" s:y="12.5" s:pid="Y"/>
  </g>
  <g s:type="and" transform="translate(324.3333333333333,402.5)" s:width="30" s:height="25" id="cell_$abc$304$auto$blifparse.cc:396:parse_blif$317">
    <s:alias val="$and"/>
    <s:alias val="$logic_and"/>
    <s:alias val="$_AND_"/>
    <path d="M0,0 L0,25 L15,25 A15 12.5 0 0 0 15,0 Z" class="cell_$abc$304$auto$blifparse.cc:396:parse_blif$317"/>
    <g s:x="0" s:y="5" s:pid="A"/>
    <g s:x="0" s:y="20" s:pid="B"/>
    <g s:x="30" s:y="12.5" s:pid="Y"/>
  </g>
  <g s:type="and" transform="translate(434.3333333333333,488.5)" s:width="30" s:height="25" id="cell_$abc$304$auto$blifparse.cc:396:parse_blif$318">
    <s:alias val="$and"/>
    <s:alias val="$logic_and"/>
    <s:alias val="$_AND_"/>
    <path d="M0,0 L0,25 L15,25 A15 12.5 0 0 0 15,0 Z" class="cell_$abc$304$auto$blifparse.cc:396:parse_blif$318"/>
    <g s:x="0" s:y="5" s:pid="A"/>
    <g s:x="0" s:y="20" s:pid="B"/>
    <g s:x="30" s:y="12.5" s:pid="Y"/>
  </g>
  <g s:type="and" transform="translate(569.3333333333333,769.5)" s:width="30" s:height="25" id="cell_$abc$304$auto$blifparse.cc:396:parse_blif$319">
    <s:alias val="$and"/>
    <s:alias val="$logic_and"/>
    <s:alias val="$_AND_"/>
    <path d="M0,0 L0,25 L15,25 A15 12.5 0 0 0 15,0 Z" class="cell_$abc$304$auto$blifparse.cc:396:parse_blif$319"/>
    <g s:x="0" s:y="5" s:pid="A"/>
    <g s:x="0" s:y="20" s:pid="B"/>
    <g s:x="30" s:y="12.5" s:pid="Y"/>
  </g>
  <g s:type="and" transform="translate(734.3333333333334,955.5)" s:width="30" s:height="25" id="cell_$abc$304$auto$blifparse.cc:396:parse_blif$320">
    <s:alias val="$and"/>
    <s:alias val="$logic_and"/>
    <s:alias val="$_AND_"/>
    <path d="M0,0 L0,25 L15,25 A15 12.5 0 0 0 15,0 Z" class="cell_$abc$304$auto$blifparse.cc:396:parse_blif$320"/>
    <g s:x="0" s:y="5" s:pid="A"/>
    <g s:x="0" s:y="20" s:pid="B"/>
    <g s:x="30" s:y="12.5" s:pid="Y"/>
  </g>
  <g s:type="generic" transform="translate(322,318.5)" s:width="30" s:height="40" id="cell_fa1">
    <text x="15" y="-4" class="nodelabel cell_fa1" s:attribute="ref">full_adder</text>
    <rect width="30" height="60" s:generic="body" class="cell_fa1"/>
    <g transform="translate(0,10)" s:x="0" s:y="10" s:pid="in0" id="port_fa1~A">
      <text x="-3" y="-4" class="inputPortLabel cell_fa1">A</text>
    </g>
    <g transform="translate(0,30)" s:x="0" s:y="10" s:pid="in0" id="port_fa1~B">
      <text x="-3" y="-4" class="inputPortLabel cell_fa1">B</text>
    </g>
    <g transform="translate(0,50)" s:x="0" s:y="10" s:pid="in0" id="port_fa1~Cin">
      <text x="-3" y="-4" class="inputPortLabel cell_fa1">Cin</text>
    </g>
    <g transform="translate(30,10)" s:x="30" s:y="10" s:pid="out0" id="port_fa1~Cout">
      <text x="5" y="-4" style="fill:#000; stroke:none" class="cell_fa1">Cout</text>
    </g>
    <g transform="translate(30,30)" s:x="30" s:y="10" s:pid="out0" id="port_fa1~Sum">
      <text x="5" y="-4" style="fill:#000; stroke:none" class="cell_fa1">Sum</text>
    </g>
  </g>
  <g s:type="generic" transform="translate(732,671.5)" s:width="30" s:height="40" id="cell_fa10">
    <text x="15" y="-4" class="nodelabel cell_fa10" s:attribute="ref">full_adder</text>
    <rect width="30" height="60" s:generic="body" class="cell_fa10"/>
    <g transform="translate(0,10)" s:x="0" s:y="10" s:pid="in0" id="port_fa10~A">
      <text x="-3" y="-4" class="inputPortLabel cell_fa10">A</text>
    </g>
    <g transform="translate(0,30)" s:x="0" s:y="10" s:pid="in0" id="port_fa10~B">
      <text x="-3" y="-4" class="inputPortLabel cell_fa10">B</text>
    </g>
    <g transform="translate(0,50)" s:x="0" s:y="10" s:pid="in0" id="port_fa10~Cin">
      <text x="-3" y="-4" class="inputPortLabel cell_fa10">Cin</text>
    </g>
    <g transform="translate(30,10)" s:x="30" s:y="10" s:pid="out0" id="port_fa10~Cout">
      <text x="5" y="-4" style="fill:#000; stroke:none" class="cell_fa10">Cout</text>
    </g>
    <g transform="translate(30,30)" s:x="30" s:y="10" s:pid="out0" id="port_fa10~Sum">
      <text x="5" y="-4" style="fill:#000; stroke:none" class="cell_fa10">Sum</text>
    </g>
  </g>
  <g s:type="generic" transform="translate(847,857.5)" s:width="30" s:height="40" id="cell_fa11">
    <text x="15" y="-4" class="nodelabel cell_fa11" s:attribute="ref">full_adder</text>
    <rect width="30" height="60" s:generic="body" class="cell_fa11"/>
    <g transform="translate(0,10)" s:x="0" s:y="10" s:pid="in0" id="port_fa11~A">
      <text x="-3" y="-4" class="inputPortLabel cell_fa11">A</text>
    </g>
    <g transform="translate(0,30)" s:x="0" s:y="10" s:pid="in0" id="port_fa11~B">
      <text x="-3" y="-4" class="inputPortLabel cell_fa11">B</text>
    </g>
    <g transform="translate(0,50)" s:x="0" s:y="10" s:pid="in0" id="port_fa11~Cin">
      <text x="-3" y="-4" class="inputPortLabel cell_fa11">Cin</text>
    </g>
    <g transform="translate(30,10)" s:x="30" s:y="10" s:pid="out0" id="port_fa11~Cout">
      <text x="5" y="-4" style="fill:#000; stroke:none" class="cell_fa11">Cout</text>
    </g>
    <g transform="translate(30,30)" s:x="30" s:y="10" s:pid="out0" id="port_fa11~Sum">
      <text x="5" y="-4" style="fill:#000; stroke:none" class="cell_fa11">Sum</text>
    </g>
  </g>
  <g s:type="generic" transform="translate(957,1028.5)" s:width="30" s:height="40" id="cell_fa12">
    <text x="15" y="-4" class="nodelabel cell_fa12" s:attribute="ref">full_adder</text>
    <rect width="30" height="60" s:generic="body" class="cell_fa12"/>
    <g transform="translate(0,10)" s:x="0" s:y="10" s:pid="in0" id="port_fa12~A">
      <text x="-3" y="-4" class="inputPortLabel cell_fa12">A</text>
    </g>
    <g transform="translate(0,30)" s:x="0" s:y="10" s:pid="in0" id="port_fa12~B">
      <text x="-3" y="-4" class="inputPortLabel cell_fa12">B</text>
    </g>
    <g transform="translate(0,50)" s:x="0" s:y="10" s:pid="in0" id="port_fa12~Cin">
      <text x="-3" y="-4" class="inputPortLabel cell_fa12">Cin</text>
    </g>
    <g transform="translate(30,10)" s:x="30" s:y="10" s:pid="out0" id="port_fa12~Cout">
      <text x="5" y="-4" style="fill:#000; stroke:none" class="cell_fa12">Cout</text>
    </g>
    <g transform="translate(30,30)" s:x="30" s:y="10" s:pid="out0" id="port_fa12~Sum">
      <text x="5" y="-4" style="fill:#000; stroke:none" class="cell_fa12">Sum</text>
    </g>
  </g>
  <g s:type="generic" transform="translate(432,671.5)" s:width="30" s:height="40" id="cell_fa2">
    <text x="15" y="-4" class="nodelabel cell_fa2" s:attribute="ref">full_adder</text>
    <rect width="30" height="60" s:generic="body" class="cell_fa2"/>
    <g transform="translate(0,10)" s:x="0" s:y="10" s:pid="in0" id="port_fa2~A">
      <text x="-3" y="-4" class="inputPortLabel cell_fa2">A</text>
    </g>
    <g transform="translate(0,30)" s:x="0" s:y="10" s:pid="in0" id="port_fa2~B">
      <text x="-3" y="-4" class="inputPortLabel cell_fa2">B</text>
    </g>
    <g transform="translate(0,50)" s:x="0" s:y="10" s:pid="in0" id="port_fa2~Cin">
      <text x="-3" y="-4" class="inputPortLabel cell_fa2">Cin</text>
    </g>
    <g transform="translate(30,10)" s:x="30" s:y="10" s:pid="out0" id="port_fa2~Cout">
      <text x="5" y="-4" style="fill:#000; stroke:none" class="cell_fa2">Cout</text>
    </g>
    <g transform="translate(30,30)" s:x="30" s:y="10" s:pid="out0" id="port_fa2~Sum">
      <text x="5" y="-4" style="fill:#000; stroke:none" class="cell_fa2">Sum</text>
    </g>
  </g>
  <g s:type="generic" transform="translate(567,857.5)" s:width="30" s:height="40" id="cell_fa3">
    <text x="15" y="-4" class="nodelabel cell_fa3" s:attribute="ref">full_adder</text>
    <rect width="30" height="60" s:generic="body" class="cell_fa3"/>
    <g transform="translate(0,10)" s:x="0" s:y="10" s:pid="in0" id="port_fa3~A">
      <text x="-3" y="-4" class="inputPortLabel cell_fa3">A</text>
    </g>
    <g transform="translate(0,30)" s:x="0" s:y="10" s:pid="in0" id="port_fa3~B">
      <text x="-3" y="-4" class="inputPortLabel cell_fa3">B</text>
    </g>
    <g transform="translate(0,50)" s:x="0" s:y="10" s:pid="in0" id="port_fa3~Cin">
      <text x="-3" y="-4" class="inputPortLabel cell_fa3">Cin</text>
    </g>
    <g transform="translate(30,10)" s:x="30" s:y="10" s:pid="out0" id="port_fa3~Cout">
      <text x="5" y="-4" style="fill:#000; stroke:none" class="cell_fa3">Cout</text>
    </g>
    <g transform="translate(30,30)" s:x="30" s:y="10" s:pid="out0" id="port_fa3~Sum">
      <text x="5" y="-4" style="fill:#000; stroke:none" class="cell_fa3">Sum</text>
    </g>
  </g>
  <g s:type="generic" transform="translate(732,1028.5)" s:width="30" s:height="40" id="cell_fa4">
    <text x="15" y="-4" class="nodelabel cell_fa4" s:attribute="ref">full_adder</text>
    <rect width="30" height="60" s:generic="body" class="cell_fa4"/>
    <g transform="translate(0,10)" s:x="0" s:y="10" s:pid="in0" id="port_fa4~A">
      <text x="-3" y="-4" class="inputPortLabel cell_fa4">A</text>
    </g>
    <g transform="translate(0,30)" s:x="0" s:y="10" s:pid="in0" id="port_fa4~B">
      <text x="-3" y="-4" class="inputPortLabel cell_fa4">B</text>
    </g>
    <g transform="translate(0,50)" s:x="0" s:y="10" s:pid="in0" id="port_fa4~Cin">
      <text x="-3" y="-4" class="inputPortLabel cell_fa4">Cin</text>
    </g>
    <g transform="translate(30,10)" s:x="30" s:y="10" s:pid="out0" id="port_fa4~Cout">
      <text x="5" y="-4" style="fill:#000; stroke:none" class="cell_fa4">Cout</text>
    </g>
    <g transform="translate(30,30)" s:x="30" s:y="10" s:pid="out0" id="port_fa4~Sum">
      <text x="5" y="-4" style="fill:#000; stroke:none" class="cell_fa4">Sum</text>
    </g>
  </g>
  <g s:type="generic" transform="translate(432,404.5)" s:width="30" s:height="40" id="cell_fa5">
    <text x="15" y="-4" class="nodelabel cell_fa5" s:attribute="ref">full_adder</text>
    <rect width="30" height="60" s:generic="body" class="cell_fa5"/>
    <g transform="translate(0,10)" s:x="0" s:y="10" s:pid="in0" id="port_fa5~A">
      <text x="-3" y="-4" class="inputPortLabel cell_fa5">A</text>
    </g>
    <g transform="translate(0,30)" s:x="0" s:y="10" s:pid="in0" id="port_fa5~B">
      <text x="-3" y="-4" class="inputPortLabel cell_fa5">B</text>
    </g>
    <g transform="translate(0,50)" s:x="0" s:y="10" s:pid="in0" id="port_fa5~Cin">
      <text x="-3" y="-4" class="inputPortLabel cell_fa5">Cin</text>
    </g>
    <g transform="translate(30,10)" s:x="30" s:y="10" s:pid="out0" id="port_fa5~Cout">
      <text x="5" y="-4" style="fill:#000; stroke:none" class="cell_fa5">Cout</text>
    </g>
    <g transform="translate(30,30)" s:x="30" s:y="10" s:pid="out0" id="port_fa5~Sum">
      <text x="5" y="-4" style="fill:#000; stroke:none" class="cell_fa5">Sum</text>
    </g>
  </g>
  <g s:type="generic" transform="translate(567,671.5)" s:width="30" s:height="40" id="cell_fa6">
    <text x="15" y="-4" class="nodelabel cell_fa6" s:attribute="ref">full_adder</text>
    <rect width="30" height="60" s:generic="body" class="cell_fa6"/>
    <g transform="translate(0,10)" s:x="0" s:y="10" s:pid="in0" id="port_fa6~A">
      <text x="-3" y="-4" class="inputPortLabel cell_fa6">A</text>
    </g>
    <g transform="translate(0,30)" s:x="0" s:y="10" s:pid="in0" id="port_fa6~B">
      <text x="-3" y="-4" class="inputPortLabel cell_fa6">B</text>
    </g>
    <g transform="translate(0,50)" s:x="0" s:y="10" s:pid="in0" id="port_fa6~Cin">
      <text x="-3" y="-4" class="inputPortLabel cell_fa6">Cin</text>
    </g>
    <g transform="translate(30,10)" s:x="30" s:y="10" s:pid="out0" id="port_fa6~Cout">
      <text x="5" y="-4" style="fill:#000; stroke:none" class="cell_fa6">Cout</text>
    </g>
    <g transform="translate(30,30)" s:x="30" s:y="10" s:pid="out0" id="port_fa6~Sum">
      <text x="5" y="-4" style="fill:#000; stroke:none" class="cell_fa6">Sum</text>
    </g>
  </g>
  <g s:type="generic" transform="translate(732,857.5)" s:width="30" s:height="40" id="cell_fa7">
    <text x="15" y="-4" class="nodelabel cell_fa7" s:attribute="ref">full_adder</text>
    <rect width="30" height="60" s:generic="body" class="cell_fa7"/>
    <g transform="translate(0,10)" s:x="0" s:y="10" s:pid="in0" id="port_fa7~A">
      <text x="-3" y="-4" class="inputPortLabel cell_fa7">A</text>
    </g>
    <g transform="translate(0,30)" s:x="0" s:y="10" s:pid="in0" id="port_fa7~B">
      <text x="-3" y="-4" class="inputPortLabel cell_fa7">B</text>
    </g>
    <g transform="translate(0,50)" s:x="0" s:y="10" s:pid="in0" id="port_fa7~Cin">
      <text x="-3" y="-4" class="inputPortLabel cell_fa7">Cin</text>
    </g>
    <g transform="translate(30,10)" s:x="30" s:y="10" s:pid="out0" id="port_fa7~Cout">
      <text x="5" y="-4" style="fill:#000; stroke:none" class="cell_fa7">Cout</text>
    </g>
    <g transform="translate(30,30)" s:x="30" s:y="10" s:pid="out0" id="port_fa7~Sum">
      <text x="5" y="-4" style="fill:#000; stroke:none" class="cell_fa7">Sum</text>
    </g>
  </g>
  <g s:type="generic" transform="translate(847,1028.5)" s:width="30" s:height="40" id="cell_fa8">
    <text x="15" y="-4" class="nodelabel cell_fa8" s:attribute="ref">full_adder</text>
    <rect width="30" height="60" s:generic="body" class="cell_fa8"/>
    <g transform="translate(0,10)" s:x="0" s:y="10" s:pid="in0" id="port_fa8~A">
      <text x="-3" y="-4" class="inputPortLabel cell_fa8">A</text>
    </g>
    <g transform="translate(0,30)" s:x="0" s:y="10" s:pid="in0" id="port_fa8~B">
      <text x="-3" y="-4" class="inputPortLabel cell_fa8">B</text>
    </g>
    <g transform="translate(0,50)" s:x="0" s:y="10" s:pid="in0" id="port_fa8~Cin">
      <text x="-3" y="-4" class="inputPortLabel cell_fa8">Cin</text>
    </g>
    <g transform="translate(30,10)" s:x="30" s:y="10" s:pid="out0" id="port_fa8~Cout">
      <text x="5" y="-4" style="fill:#000; stroke:none" class="cell_fa8">Cout</text>
    </g>
    <g transform="translate(30,30)" s:x="30" s:y="10" s:pid="out0" id="port_fa8~Sum">
      <text x="5" y="-4" style="fill:#000; stroke:none" class="cell_fa8">Sum</text>
    </g>
  </g>
  <g s:type="generic" transform="translate(567,85)" s:width="30" s:height="40" id="cell_fa9">
    <text x="15" y="-4" class="nodelabel cell_fa9" s:attribute="ref">full_adder</text>
    <rect width="30" height="60" s:generic="body" class="cell_fa9"/>
    <g transform="translate(0,10)" s:x="0" s:y="10" s:pid="in0" id="port_fa9~A">
      <text x="-3" y="-4" class="inputPortLabel cell_fa9">A</text>
    </g>
    <g transform="translate(0,30)" s:x="0" s:y="10" s:pid="in0" id="port_fa9~B">
      <text x="-3" y="-4" class="inputPortLabel cell_fa9">B</text>
    </g>
    <g transform="translate(0,50)" s:x="0" s:y="10" s:pid="in0" id="port_fa9~Cin">
      <text x="-3" y="-4" class="inputPortLabel cell_fa9">Cin</text>
    </g>
    <g transform="translate(30,10)" s:x="30" s:y="10" s:pid="out0" id="port_fa9~Cout">
      <text x="5" y="-4" style="fill:#000; stroke:none" class="cell_fa9">Cout</text>
    </g>
    <g transform="translate(30,30)" s:x="30" s:y="10" s:pid="out0" id="port_fa9~Sum">
      <text x="5" y="-4" style="fill:#000; stroke:none" class="cell_fa9">Sum</text>
    </g>
  </g>
  <g s:type="inputExt" transform="translate(66,463.5)" s:width="30" s:height="20" id="cell_A">
    <text x="15" y="-4" class="nodelabel cell_A" s:attribute="ref">A</text>
    <s:alias val="$_inputExt_"/>
    <path d="M0,0 L0,20 L15,20 L30,10 L15,0 Z" class="cell_A"/>
    <g s:x="28" s:y="10" s:pid="Y"/>
  </g>
  <g s:type="inputExt" transform="translate(66,578.5)" s:width="30" s:height="20" id="cell_B">
    <text x="15" y="-4" class="nodelabel cell_B" s:attribute="ref">B</text>
    <s:alias val="$_inputExt_"/>
    <path d="M0,0 L0,20 L15,20 L30,10 L15,0 Z" class="cell_B"/>
    <g s:x="28" s:y="10" s:pid="Y"/>
  </g>
  <g s:type="outputExt" transform="translate(12,22)" s:width="30" s:height="20" id="cell_Product">
    <text x="15" y="-4" class="nodelabel cell_Product" s:attribute="ref">Product</text>
    <s:alias val="$_outputExt_"/>
    <path d="M30,0 L30,20 L15,20 L0,10 L15,0 Z" class="cell_Product"/>
    <g s:x="0" s:y="10" s:pid="A"/>
  </g>
  <g s:type="constant" transform="translate(233,359)" s:width="30" s:height="20" id="cell_0">
    <text x="15" y="-4" class="nodelabel cell_0" s:attribute="ref">0</text>
    <s:alias val="$_constant_"/>
    <rect width="30" height="20" class="cell_0"/>
    <g s:x="30" s:y="10" s:pid="Y"/>
  </g>
  <g s:type="join" transform="translate(1053,757.5)" s:width="4" s:height="40" id="cell_$join$,10,x,x,x,11,12,13,14,">
    <rect width="5" height="160" class="splitjoinBody" s:generic="body"/>
    <s:alias val="$_join_"/>
    <g s:x="5" s:y="20" s:pid="out"/>
    <g transform="translate(0,10)" s:x="0" s:y="10" s:pid="in0">
      <text x="-3" y="-4" class="inputPortLabel">0</text>
    </g>
    <g transform="translate(0,30)" s:x="0" s:y="10" s:pid="in0">
      <text x="-3" y="-4" class="inputPortLabel">1</text>
    </g>
    <g transform="translate(0,50)" s:x="0" s:y="10" s:pid="in0">
      <text x="-3" y="-4" class="inputPortLabel">2</text>
    </g>
    <g transform="translate(0,70)" s:x="0" s:y="10" s:pid="in0">
      <text x="-3" y="-4" class="inputPortLabel">3</text>
    </g>
    <g transform="translate(0,90)" s:x="0" s:y="10" s:pid="in0">
      <text x="-3" y="-4" class="inputPortLabel">4</text>
    </g>
    <g transform="translate(0,110)" s:x="0" s:y="10" s:pid="in0">
      <text x="-3" y="-4" class="inputPortLabel">5</text>
    </g>
    <g transform="translate(0,130)" s:x="0" s:y="10" s:pid="in0">
      <text x="-3" y="-4" class="inputPortLabel">6</text>
    </g>
    <g transform="translate(0,150)" s:x="0" s:y="10" s:pid="in0">
      <text x="-3" y="-4" class="inputPortLabel">7</text>
    </g>
  </g>
  <g s:type="split" transform="translate(131,453)" s:width="5" s:height="40" id="cell_$split$,2,3,4,5,">
    <rect width="5" height="80" class="splitjoinBody" s:generic="body"/>
    <s:alias val="$_split_"/>
    <g s:x="0" s:y="20" s:pid="in"/>
    <g transform="translate(4,10)" s:x="4" s:y="10" s:pid="out0">
      <text x="5" y="-4">0</text>
    </g>
    <g transform="translate(4,30)" s:x="4" s:y="10" s:pid="out0">
      <text x="5" y="-4">1</text>
    </g>
    <g transform="translate(4,50)" s:x="4" s:y="10" s:pid="out0">
      <text x="5" y="-4">3</text>
    </g>
    <g transform="translate(4,70)" s:x="4" s:y="10" s:pid="out0">
      <text x="5" y="-4">2</text>
    </g>
  </g>
  <g s:type="split" transform="translate(131,568)" s:width="5" s:height="40" id="cell_$split$,6,7,8,9,">
    <rect width="5" height="80" class="splitjoinBody" s:generic="body"/>
    <s:alias val="$_split_"/>
    <g s:x="0" s:y="20" s:pid="in"/>
    <g transform="translate(4,10)" s:x="4" s:y="10" s:pid="out0">
      <text x="5" y="-4">0</text>
    </g>
    <g transform="translate(4,30)" s:x="4" s:y="10" s:pid="out0">
      <text x="5" y="-4">1</text>
    </g>
    <g transform="translate(4,50)" s:x="4" s:y="10" s:pid="out0">
      <text x="5" y="-4">2</text>
    </g>
    <g transform="translate(4,70)" s:x="4" s:y="10" s:pid="out0">
      <text x="5" y="-4">3</text>
    </g>
  </g>
  <line x1="136" x2="183" y1="463.5" y2="463.5" class="net_2"/>
  <line x1="183" x2="183" y1="463.5" y2="234" class="net_2"/>
  <circle cx="183" cy="463.5" r="2" style="fill:#000" class="net_2"/>
  <line x1="183" x2="233" y1="234" y2="234" class="net_2"/>
  <line x1="136" x2="183" y1="463.5" y2="463.5" class="net_2"/>
  <line x1="183" x2="183" y1="463.5" y2="649.5" class="net_2"/>
  <circle cx="183" cy="649.5" r="2" style="fill:#000" class="net_2"/>
  <line x1="183" x2="324.3333333333333" y1="649.5" y2="649.5" class="net_2"/>
  <line x1="136" x2="183" y1="463.5" y2="463.5" class="net_2"/>
  <line x1="183" x2="183" y1="463.5" y2="835.5" class="net_2"/>
  <circle cx="183" cy="835.5" r="2" style="fill:#000" class="net_2"/>
  <line x1="183" x2="434.3333333333333" y1="835.5" y2="835.5" class="net_2"/>
  <line x1="136" x2="183" y1="463.5" y2="463.5" class="net_2"/>
  <line x1="183" x2="183" y1="463.5" y2="1006.5" class="net_2"/>
  <line x1="183" x2="569.3333333333333" y1="1006.5" y2="1006.5" class="net_2"/>
  <line x1="136" x2="193" y1="578.5" y2="578.5" class="net_6"/>
  <line x1="193" x2="193" y1="578.5" y2="249" class="net_6"/>
  <circle cx="193" cy="249" r="2" style="fill:#000" class="net_6"/>
  <line x1="193" x2="233" y1="249" y2="249" class="net_6"/>
  <line x1="136" x2="193" y1="578.5" y2="578.5" class="net_6"/>
  <line x1="193" x2="193" y1="578.5" y2="309" class="net_6"/>
  <circle cx="193" cy="309" r="2" style="fill:#000" class="net_6"/>
  <line x1="193" x2="233" y1="309" y2="309" class="net_6"/>
  <line x1="136" x2="193" y1="578.5" y2="578.5" class="net_6"/>
  <line x1="193" x2="193" y1="578.5" y2="103" class="net_6"/>
  <line x1="193" x2="434.3333333333333" y1="103" y2="103" class="net_6"/>
  <line x1="136" x2="193" y1="578.5" y2="578.5" class="net_6"/>
  <line x1="193" x2="193" y1="578.5" y2="422.5" class="net_6"/>
  <circle cx="193" cy="422.5" r="2" style="fill:#000" class="net_6"/>
  <line x1="193" x2="324.3333333333333" y1="422.5" y2="422.5" class="net_6"/>
  <line x1="136" x2="213" y1="598.5" y2="598.5" class="net_7"/>
  <line x1="213" x2="213" y1="598.5" y2="634.5" class="net_7"/>
  <circle cx="213" cy="598.5" r="2" style="fill:#000" class="net_7"/>
  <circle cx="213" cy="634.5" r="2" style="fill:#000" class="net_7"/>
  <line x1="213" x2="324.3333333333333" y1="634.5" y2="634.5" class="net_7"/>
  <line x1="136" x2="213" y1="598.5" y2="598.5" class="net_7"/>
  <line x1="213" x2="213" y1="598.5" y2="709.5" class="net_7"/>
  <line x1="213" x2="324.3333333333333" y1="709.5" y2="709.5" class="net_7"/>
  <line x1="136" x2="213" y1="598.5" y2="598.5" class="net_7"/>
  <line x1="213" x2="213" y1="598.5" y2="203" class="net_7"/>
  <line x1="213" x2="569.3333333333333" y1="203" y2="203" class="net_7"/>
  <line x1="136" x2="213" y1="598.5" y2="598.5" class="net_7"/>
  <line x1="213" x2="213" y1="598.5" y2="508.5" class="net_7"/>
  <circle cx="213" cy="508.5" r="2" style="fill:#000" class="net_7"/>
  <line x1="213" x2="434.3333333333333" y1="508.5" y2="508.5" class="net_7"/>
  <line x1="136" x2="203" y1="618.5" y2="618.5" class="net_8"/>
  <line x1="203" x2="203" y1="618.5" y2="820.5" class="net_8"/>
  <circle cx="203" cy="618.5" r="2" style="fill:#000" class="net_8"/>
  <circle cx="203" cy="820.5" r="2" style="fill:#000" class="net_8"/>
  <line x1="203" x2="434.3333333333333" y1="820.5" y2="820.5" class="net_8"/>
  <line x1="136" x2="203" y1="618.5" y2="618.5" class="net_8"/>
  <line x1="203" x2="203" y1="618.5" y2="895.5" class="net_8"/>
  <line x1="203" x2="434.3333333333333" y1="895.5" y2="895.5" class="net_8"/>
  <line x1="136" x2="203" y1="618.5" y2="618.5" class="net_8"/>
  <line x1="203" x2="203" y1="618.5" y2="477.5" class="net_8"/>
  <line x1="203" x2="673" y1="477.5" y2="477.5" class="net_8"/>
  <line x1="673" x2="673" y1="477.5" y2="807.5" class="net_8"/>
  <line x1="673" x2="734.3333333333334" y1="807.5" y2="807.5" class="net_8"/>
  <line x1="136" x2="508" y1="618.5" y2="618.5" class="net_8"/>
  <line x1="508" x2="508" y1="618.5" y2="789.5" class="net_8"/>
  <line x1="508" x2="569.3333333333333" y1="789.5" y2="789.5" class="net_8"/>
  <line x1="136" x2="153" y1="638.5" y2="638.5" class="net_9"/>
  <line x1="153" x2="153" y1="638.5" y2="975.5" class="net_9"/>
  <line x1="153" x2="498" y1="975.5" y2="975.5" class="net_9"/>
  <line x1="498" x2="498" y1="975.5" y2="991.5" class="net_9"/>
  <circle cx="153" cy="638.5" r="2" style="fill:#000" class="net_9"/>
  <circle cx="153" cy="975.5" r="2" style="fill:#000" class="net_9"/>
  <circle cx="498" cy="975.5" r="2" style="fill:#000" class="net_9"/>
  <line x1="498" x2="569.3333333333333" y1="991.5" y2="991.5" class="net_9"/>
  <line x1="136" x2="153" y1="638.5" y2="638.5" class="net_9"/>
  <line x1="153" x2="153" y1="638.5" y2="1066.5" class="net_9"/>
  <line x1="153" x2="569.3333333333333" y1="1066.5" y2="1066.5" class="net_9"/>
  <line x1="136" x2="153" y1="638.5" y2="638.5" class="net_9"/>
  <line x1="153" x2="153" y1="638.5" y2="64" class="net_9"/>
  <line x1="153" x2="849.3333333333334" y1="64" y2="64" class="net_9"/>
  <line x1="136" x2="153" y1="638.5" y2="638.5" class="net_9"/>
  <line x1="153" x2="153" y1="638.5" y2="975.5" class="net_9"/>
  <line x1="153" x2="734.3333333333334" y1="975.5" y2="975.5" class="net_9"/>
  <line x1="136" x2="173" y1="483.5" y2="483.5" class="net_3"/>
  <line x1="173" x2="173" y1="483.5" y2="294" class="net_3"/>
  <circle cx="173" cy="483.5" r="2" style="fill:#000" class="net_3"/>
  <line x1="173" x2="233" y1="294" y2="294" class="net_3"/>
  <line x1="136" x2="173" y1="483.5" y2="483.5" class="net_3"/>
  <line x1="173" x2="173" y1="483.5" y2="694.5" class="net_3"/>
  <circle cx="173" cy="694.5" r="2" style="fill:#000" class="net_3"/>
  <line x1="173" x2="324.3333333333333" y1="694.5" y2="694.5" class="net_3"/>
  <line x1="136" x2="173" y1="483.5" y2="483.5" class="net_3"/>
  <line x1="173" x2="173" y1="483.5" y2="880.5" class="net_3"/>
  <circle cx="173" cy="880.5" r="2" style="fill:#000" class="net_3"/>
  <line x1="173" x2="434.3333333333333" y1="880.5" y2="880.5" class="net_3"/>
  <line x1="136" x2="173" y1="483.5" y2="483.5" class="net_3"/>
  <line x1="173" x2="173" y1="483.5" y2="1051.5" class="net_3"/>
  <line x1="173" x2="569.3333333333333" y1="1051.5" y2="1051.5" class="net_3"/>
  <line x1="136" x2="163" y1="503.5" y2="503.5" class="net_5"/>
  <line x1="163" x2="163" y1="503.5" y2="88" class="net_5"/>
  <circle cx="163" cy="88" r="2" style="fill:#000" class="net_5"/>
  <line x1="163" x2="434.3333333333333" y1="88" y2="88" class="net_5"/>
  <line x1="136" x2="163" y1="503.5" y2="503.5" class="net_5"/>
  <line x1="163" x2="163" y1="503.5" y2="188" class="net_5"/>
  <circle cx="163" cy="188" r="2" style="fill:#000" class="net_5"/>
  <line x1="163" x2="569.3333333333333" y1="188" y2="188" class="net_5"/>
  <line x1="136" x2="163" y1="503.5" y2="503.5" class="net_5"/>
  <line x1="163" x2="163" y1="503.5" y2="218" class="net_5"/>
  <line x1="163" x2="683" y1="218" y2="218" class="net_5"/>
  <line x1="683" x2="683" y1="218" y2="792.5" class="net_5"/>
  <circle cx="163" cy="218" r="2" style="fill:#000" class="net_5"/>
  <line x1="683" x2="734.3333333333334" y1="792.5" y2="792.5" class="net_5"/>
  <line x1="136" x2="163" y1="503.5" y2="503.5" class="net_5"/>
  <line x1="163" x2="163" y1="503.5" y2="49" class="net_5"/>
  <line x1="163" x2="849.3333333333334" y1="49" y2="49" class="net_5"/>
  <line x1="136" x2="223" y1="523.5" y2="523.5" class="net_4"/>
  <line x1="223" x2="223" y1="523.5" y2="407.5" class="net_4"/>
  <circle cx="223" cy="523.5" r="2" style="fill:#000" class="net_4"/>
  <line x1="223" x2="324.3333333333333" y1="407.5" y2="407.5" class="net_4"/>
  <line x1="136" x2="223" y1="523.5" y2="523.5" class="net_4"/>
  <line x1="223" x2="223" y1="523.5" y2="493.5" class="net_4"/>
  <circle cx="223" cy="493.5" r="2" style="fill:#000" class="net_4"/>
  <line x1="223" x2="434.3333333333333" y1="493.5" y2="493.5" class="net_4"/>
  <line x1="136" x2="518" y1="523.5" y2="523.5" class="net_4"/>
  <line x1="518" x2="518" y1="523.5" y2="774.5" class="net_4"/>
  <line x1="518" x2="569.3333333333333" y1="774.5" y2="774.5" class="net_4"/>
  <line x1="136" x2="223" y1="523.5" y2="523.5" class="net_4"/>
  <line x1="223" x2="223" y1="523.5" y2="804.5" class="net_4"/>
  <line x1="223" x2="643" y1="804.5" y2="804.5" class="net_4"/>
  <line x1="643" x2="643" y1="804.5" y2="960.5" class="net_4"/>
  <line x1="643" x2="734.3333333333334" y1="960.5" y2="960.5" class="net_4"/>
  <line x1="263" x2="293" y1="241.5" y2="241.5" class="net_15"/>
  <line x1="293" x2="293" y1="241.5" y2="329" class="net_15"/>
  <line x1="293" x2="322" y1="329" y2="329" class="net_15"/>
  <line x1="263" x2="273" y1="301.5" y2="301.5" class="net_19"/>
  <line x1="273" x2="273" y1="301.5" y2="349" class="net_19"/>
  <line x1="273" x2="322" y1="349" y2="349" class="net_19"/>
  <line x1="263" x2="322" y1="369" y2="369" class="net_49"/>
  <line x1="263" x2="283" y1="369" y2="369" class="net_49"/>
  <line x1="283" x2="283" y1="369" y2="391.5" class="net_49"/>
  <line x1="283" x2="388" y1="391.5" y2="391.5" class="net_49"/>
  <line x1="388" x2="388" y1="391.5" y2="455" class="net_49"/>
  <circle cx="283" cy="369" r="2" style="fill:#000" class="net_49"/>
  <line x1="388" x2="432" y1="455" y2="455" class="net_49"/>
  <line x1="263" x2="283" y1="369" y2="369" class="net_49"/>
  <line x1="283" x2="283" y1="369" y2="135.5" class="net_49"/>
  <line x1="283" x2="567" y1="135.5" y2="135.5" class="net_49"/>
  <line x1="599.3333333333333" x2="693" y1="195.5" y2="195.5" class="net_24"/>
  <line x1="693" x2="693" y1="195.5" y2="682" class="net_24"/>
  <line x1="693" x2="732" y1="682" y2="682" class="net_24"/>
  <line x1="598" x2="732" y1="702" y2="702" class="net_32"/>
  <line x1="598" x2="703" y1="95.5" y2="95.5" class="net_33"/>
  <line x1="703" x2="703" y1="95.5" y2="722" class="net_33"/>
  <line x1="703" x2="732" y1="722" y2="722" class="net_33"/>
  <line x1="764.3333333333334" x2="808" y1="800" y2="800" class="net_25"/>
  <line x1="808" x2="808" y1="800" y2="868" class="net_25"/>
  <line x1="808" x2="847" y1="868" y2="868" class="net_25"/>
  <line x1="763" x2="847" y1="888" y2="888" class="net_35"/>
  <line x1="763" x2="818" y1="682" y2="682" class="net_34"/>
  <line x1="818" x2="818" y1="682" y2="908" class="net_34"/>
  <line x1="818" x2="847" y1="908" y2="908" class="net_34"/>
  <line x1="879.3333333333334" x2="923" y1="56.5" y2="56.5" class="net_26"/>
  <line x1="923" x2="923" y1="56.5" y2="1039" class="net_26"/>
  <line x1="923" x2="957" y1="1039" y2="1039" class="net_26"/>
  <line x1="878" x2="957" y1="1059" y2="1059" class="net_37"/>
  <line x1="878" x2="913" y1="868" y2="868" class="net_36"/>
  <line x1="913" x2="913" y1="868" y2="1079" class="net_36"/>
  <line x1="913" x2="957" y1="1079" y2="1079" class="net_36"/>
  <line x1="354.3333333333333" x2="388" y1="642" y2="642" class="net_16"/>
  <line x1="388" x2="388" y1="642" y2="682" class="net_16"/>
  <line x1="388" x2="432" y1="682" y2="682" class="net_16"/>
  <line x1="354.3333333333333" x2="432" y1="702" y2="702" class="net_20"/>
  <line x1="353" x2="398" y1="329" y2="329" class="net_31"/>
  <line x1="398" x2="398" y1="329" y2="722" class="net_31"/>
  <line x1="398" x2="432" y1="722" y2="722" class="net_31"/>
  <line x1="464.3333333333333" x2="508" y1="828" y2="828" class="net_17"/>
  <line x1="508" x2="508" y1="828" y2="868" class="net_17"/>
  <line x1="508" x2="567" y1="868" y2="868" class="net_17"/>
  <line x1="464.3333333333333" x2="567" y1="888" y2="888" class="net_21"/>
  <line x1="463" x2="498" y1="682" y2="682" class="net_38"/>
  <line x1="498" x2="498" y1="682" y2="908" class="net_38"/>
  <line x1="498" x2="567" y1="908" y2="908" class="net_38"/>
  <line x1="599.3333333333333" x2="643" y1="999" y2="999" class="net_18"/>
  <line x1="643" x2="643" y1="999" y2="1039" class="net_18"/>
  <line x1="643" x2="732" y1="1039" y2="1039" class="net_18"/>
  <line x1="599.3333333333333" x2="732" y1="1059" y2="1059" class="net_22"/>
  <line x1="598" x2="633" y1="868" y2="868" class="net_40"/>
  <line x1="633" x2="633" y1="868" y2="1079" class="net_40"/>
  <line x1="633" x2="732" y1="1079" y2="1079" class="net_40"/>
  <line x1="354.3333333333333" x2="432" y1="415" y2="415" class="net_27"/>
  <line x1="464.3333333333333" x2="528" y1="501" y2="501" class="net_28"/>
  <line x1="528" x2="528" y1="501" y2="682" class="net_28"/>
  <line x1="528" x2="567" y1="682" y2="682" class="net_28"/>
  <line x1="463" x2="567" y1="702" y2="702" class="net_39"/>
  <line x1="463" x2="538" y1="415" y2="415" class="net_44"/>
  <line x1="538" x2="538" y1="415" y2="722" class="net_44"/>
  <line x1="538" x2="567" y1="722" y2="722" class="net_44"/>
  <line x1="599.3333333333333" x2="653" y1="782" y2="782" class="net_29"/>
  <line x1="653" x2="653" y1="782" y2="868" class="net_29"/>
  <line x1="653" x2="732" y1="868" y2="868" class="net_29"/>
  <line x1="598" x2="732" y1="888" y2="888" class="net_41"/>
  <line x1="598" x2="663" y1="682" y2="682" class="net_46"/>
  <line x1="663" x2="663" y1="682" y2="908" class="net_46"/>
  <line x1="663" x2="732" y1="908" y2="908" class="net_46"/>
  <line x1="764.3333333333334" x2="808" y1="968" y2="968" class="net_30"/>
  <line x1="808" x2="808" y1="968" y2="1039" class="net_30"/>
  <line x1="808" x2="847" y1="1039" y2="1039" class="net_30"/>
  <line x1="763" x2="847" y1="1059" y2="1059" class="net_43"/>
  <line x1="763" x2="798" y1="868" y2="868" class="net_47"/>
  <line x1="798" x2="798" y1="868" y2="1079" class="net_47"/>
  <line x1="798" x2="847" y1="1079" y2="1079" class="net_47"/>
  <line x1="464.3333333333333" x2="567" y1="95.5" y2="95.5" class="net_23"/>
  <line x1="463" x2="498" y1="435" y2="435" class="net_45"/>
  <line x1="498" x2="498" y1="435" y2="115.5" class="net_45"/>
  <line x1="498" x2="567" y1="115.5" y2="115.5" class="net_45"/>
  <line x1="353" x2="388" y1="349" y2="349" class="net_10"/>
  <line x1="388" x2="388" y1="349" y2="12" class="net_10"/>
  <line x1="388" x2="1053.5" y1="12" y2="12" class="net_10"/>
  <line x1="1053.5" x2="1053.5" y1="12" y2="767.5" class="net_10"/>
  <line x1="1043" x2="1043" y1="23" y2="788" class="net_NaN"/>
  <circle cx="1043" cy="788" r="2" style="fill:#000" class="net_NaN"/>
  <line x1="1043" x2="1053" y1="788" y2="788" class="net_NaN"/>
  <line x1="1043" x2="1043" y1="23" y2="808" class="net_NaN"/>
  <circle cx="1043" cy="808" r="2" style="fill:#000" class="net_NaN"/>
  <line x1="1043" x2="1053" y1="808" y2="808" class="net_NaN"/>
  <line x1="1043" x2="1043" y1="23" y2="828" class="net_NaN"/>
  <line x1="1043" x2="1053" y1="828" y2="828" class="net_NaN"/>
  <line x1="598" x2="633" y1="115.5" y2="115.5" class="net_11"/>
  <line x1="633" x2="633" y1="115.5" y2="33" class="net_11"/>
  <line x1="633" x2="1033" y1="33" y2="33" class="net_11"/>
  <line x1="1033" x2="1033" y1="33" y2="848" class="net_11"/>
  <line x1="1033" x2="1053" y1="848" y2="848" class="net_11"/>
  <line x1="763" x2="1023" y1="702" y2="702" class="net_12"/>
  <line x1="1023" x2="1023" y1="702" y2="868" class="net_12"/>
  <line x1="1023" x2="1053" y1="868" y2="868" class="net_12"/>
  <line x1="878" x2="1053" y1="888" y2="888" class="net_13"/>
  <line x1="988" x2="1053.5" y1="1059" y2="1059" class="net_14"/>
  <line x1="1053.5" x2="1053.5" y1="1059" y2="908.5" class="net_14"/>
  <line x1="94" x2="131" y1="473.5" y2="473.5" class="net_2,3,4,5"/>
  <line x1="94" x2="131" y1="588.5" y2="588.5" class="net_6,7,8,9"/>
</svg>
