<svg xmlns="http://www.w3.org/2000/svg" xmlns:xlink="http://www.w3.org/1999/xlink" xmlns:s="https://github.com/nturley/netlistsvg" width="1511" height="741">
  <style>svg {
    stroke:#000;
    fill:none;
  }
  text {
    fill:#000;
    stroke:none;
    font-size:10px;
    font-weight: bold;
    font-family: "Courier New", monospace;
  }
  .nodelabel {
    text-anchor: middle;
  }
  .inputPortLabel {
    text-anchor: end;
  }
  .splitjoinBody {
    fill:#000;
  }</style>
  <g s:type="reduce_xor" transform="translate(177,92)" s:width="33" s:height="25" id="cell_$abc$187$auto$blifparse.cc:396:parse_blif$188">
    <s:alias val="$xor"/>
    <s:alias val="$reduce_xor"/>
    <s:alias val="$_XOR_"/>
    <path d="M3,0 A30 25 0 0 1 3,25 A30 25 0 0 0 33,12.5 A30 25 0 0 0 3,0" class="cell_$abc$187$auto$blifparse.cc:396:parse_blif$188"/>
    <path d="M0,0 A30 25 0 0 1 0,25" class="cell_$abc$187$auto$blifparse.cc:396:parse_blif$188"/>
    <g s:x="3" s:y="5" s:pid="A"/>
    <g s:x="3" s:y="20" s:pid="B"/>
    <g s:x="33" s:y="12.5" s:pid="Y"/>
  </g>
  <g s:type="reduce_xor" transform="translate(310.3333333333333,396.5)" s:width="33" s:height="25" id="cell_$abc$187$auto$blifparse.cc:396:parse_blif$189">
    <s:alias val="$xor"/>
    <s:alias val="$reduce_xor"/>
    <s:alias val="$_XOR_"/>
    <path d="M3,0 A30 25 0 0 1 3,25 A30 25 0 0 0 33,12.5 A30 25 0 0 0 3,0" class="cell_$abc$187$auto$blifparse.cc:396:parse_blif$189"/>
    <path d="M0,0 A30 25 0 0 1 0,25" class="cell_$abc$187$auto$blifparse.cc:396:parse_blif$189"/>
    <g s:x="3" s:y="5" s:pid="A"/>
    <g s:x="3" s:y="20" s:pid="B"/>
    <g s:x="33" s:y="12.5" s:pid="Y"/>
  </g>
  <g s:type="reduce_xor" transform="translate(431.6666666666667,426.5)" s:width="33" s:height="25" id="cell_$abc$187$auto$blifparse.cc:396:parse_blif$190">
    <s:alias val="$xor"/>
    <s:alias val="$reduce_xor"/>
    <s:alias val="$_XOR_"/>
    <path d="M3,0 A30 25 0 0 1 3,25 A30 25 0 0 0 33,12.5 A30 25 0 0 0 3,0" class="cell_$abc$187$auto$blifparse.cc:396:parse_blif$190"/>
    <path d="M0,0 A30 25 0 0 1 0,25" class="cell_$abc$187$auto$blifparse.cc:396:parse_blif$190"/>
    <g s:x="3" s:y="5" s:pid="A"/>
    <g s:x="3" s:y="20" s:pid="B"/>
    <g s:x="33" s:y="12.5" s:pid="Y"/>
  </g>
  <g s:type="reduce_xor" transform="translate(575.6666666666666,472.5)" s:width="33" s:height="25" id="cell_$abc$187$auto$blifparse.cc:396:parse_blif$191">
    <s:alias val="$xor"/>
    <s:alias val="$reduce_xor"/>
    <s:alias val="$_XOR_"/>
    <path d="M3,0 A30 25 0 0 1 3,25 A30 25 0 0 0 33,12.5 A30 25 0 0 0 3,0" class="cell_$abc$187$auto$blifparse.cc:396:parse_blif$191"/>
    <path d="M0,0 A30 25 0 0 1 0,25" class="cell_$abc$187$auto$blifparse.cc:396:parse_blif$191"/>
    <g s:x="3" s:y="5" s:pid="A"/>
    <g s:x="3" s:y="20" s:pid="B"/>
    <g s:x="33" s:y="12.5" s:pid="Y"/>
  </g>
  <g s:type="reduce_xor" transform="translate(719.6666666666666,535)" s:width="33" s:height="25" id="cell_$abc$187$auto$blifparse.cc:396:parse_blif$192">
    <s:alias val="$xor"/>
    <s:alias val="$reduce_xor"/>
    <s:alias val="$_XOR_"/>
    <path d="M3,0 A30 25 0 0 1 3,25 A30 25 0 0 0 33,12.5 A30 25 0 0 0 3,0" class="cell_$abc$187$auto$blifparse.cc:396:parse_blif$192"/>
    <path d="M0,0 A30 25 0 0 1 0,25" class="cell_$abc$187$auto$blifparse.cc:396:parse_blif$192"/>
    <g s:x="3" s:y="5" s:pid="A"/>
    <g s:x="3" s:y="20" s:pid="B"/>
    <g s:x="33" s:y="12.5" s:pid="Y"/>
  </g>
  <g s:type="reduce_xor" transform="translate(863.6666666666666,597.5)" s:width="33" s:height="25" id="cell_$abc$187$auto$blifparse.cc:396:parse_blif$193">
    <s:alias val="$xor"/>
    <s:alias val="$reduce_xor"/>
    <s:alias val="$_XOR_"/>
    <path d="M3,0 A30 25 0 0 1 3,25 A30 25 0 0 0 33,12.5 A30 25 0 0 0 3,0" class="cell_$abc$187$auto$blifparse.cc:396:parse_blif$193"/>
    <path d="M0,0 A30 25 0 0 1 0,25" class="cell_$abc$187$auto$blifparse.cc:396:parse_blif$193"/>
    <g s:x="3" s:y="5" s:pid="A"/>
    <g s:x="3" s:y="20" s:pid="B"/>
    <g s:x="33" s:y="12.5" s:pid="Y"/>
  </g>
  <g s:type="reduce_xor" transform="translate(1007.6666666666666,674)" s:width="33" s:height="25" id="cell_$abc$187$auto$blifparse.cc:396:parse_blif$194">
    <s:alias val="$xor"/>
    <s:alias val="$reduce_xor"/>
    <s:alias val="$_XOR_"/>
    <path d="M3,0 A30 25 0 0 1 3,25 A30 25 0 0 0 33,12.5 A30 25 0 0 0 3,0" class="cell_$abc$187$auto$blifparse.cc:396:parse_blif$194"/>
    <path d="M0,0 A30 25 0 0 1 0,25" class="cell_$abc$187$auto$blifparse.cc:396:parse_blif$194"/>
    <g s:x="3" s:y="5" s:pid="A"/>
    <g s:x="3" s:y="20" s:pid="B"/>
    <g s:x="33" s:y="12.5" s:pid="Y"/>
  </g>
  <g s:type="reduce_xor" transform="translate(1151.6666666666667,704)" s:width="33" s:height="25" id="cell_$abc$187$auto$blifparse.cc:396:parse_blif$195">
    <s:alias val="$xor"/>
    <s:alias val="$reduce_xor"/>
    <s:alias val="$_XOR_"/>
    <path d="M3,0 A30 25 0 0 1 3,25 A30 25 0 0 0 33,12.5 A30 25 0 0 0 3,0" class="cell_$abc$187$auto$blifparse.cc:396:parse_blif$195"/>
    <path d="M0,0 A30 25 0 0 1 0,25" class="cell_$abc$187$auto$blifparse.cc:396:parse_blif$195"/>
    <g s:x="3" s:y="5" s:pid="A"/>
    <g s:x="3" s:y="20" s:pid="B"/>
    <g s:x="33" s:y="12.5" s:pid="Y"/>
  </g>
  <g s:type="generic" transform="translate(419,312.5)" s:width="30" s:height="40" id="cell_adder_gen[1].fa">
    <text x="15" y="-4" class="nodelabel cell_adder_gen[1].fa" s:attribute="ref">full_adder</text>
    <rect width="30" height="60" s:generic="body" class="cell_adder_gen[1].fa"/>
    <g transform="translate(0,10)" s:x="0" s:y="10" s:pid="in0" id="port_adder_gen[1].fa~A">
      <text x="-3" y="-4" class="inputPortLabel cell_adder_gen[1].fa">A</text>
    </g>
    <g transform="translate(0,30)" s:x="0" s:y="10" s:pid="in0" id="port_adder_gen[1].fa~B">
      <text x="-3" y="-4" class="inputPortLabel cell_adder_gen[1].fa">B</text>
    </g>
    <g transform="translate(0,50)" s:x="0" s:y="10" s:pid="in0" id="port_adder_gen[1].fa~Cin">
      <text x="-3" y="-4" class="inputPortLabel cell_adder_gen[1].fa">Cin</text>
    </g>
    <g transform="translate(30,10)" s:x="30" s:y="10" s:pid="out0" id="port_adder_gen[1].fa~Cout">
      <text x="5" y="-4" style="fill:#000; stroke:none" class="cell_adder_gen[1].fa">Cout</text>
    </g>
    <g transform="translate(30,30)" s:x="30" s:y="10" s:pid="out0" id="port_adder_gen[1].fa~Sum">
      <text x="5" y="-4" style="fill:#000; stroke:none" class="cell_adder_gen[1].fa">Sum</text>
    </g>
  </g>
  <g s:type="generic" transform="translate(563,375)" s:width="30" s:height="40" id="cell_adder_gen[2].fa">
    <text x="15" y="-4" class="nodelabel cell_adder_gen[2].fa" s:attribute="ref">full_adder</text>
    <rect width="30" height="60" s:generic="body" class="cell_adder_gen[2].fa"/>
    <g transform="translate(0,10)" s:x="0" s:y="10" s:pid="in0" id="port_adder_gen[2].fa~A">
      <text x="-3" y="-4" class="inputPortLabel cell_adder_gen[2].fa">A</text>
    </g>
    <g transform="translate(0,30)" s:x="0" s:y="10" s:pid="in0" id="port_adder_gen[2].fa~B">
      <text x="-3" y="-4" class="inputPortLabel cell_adder_gen[2].fa">B</text>
    </g>
    <g transform="translate(0,50)" s:x="0" s:y="10" s:pid="in0" id="port_adder_gen[2].fa~Cin">
      <text x="-3" y="-4" class="inputPortLabel cell_adder_gen[2].fa">Cin</text>
    </g>
    <g transform="translate(30,10)" s:x="30" s:y="10" s:pid="out0" id="port_adder_gen[2].fa~Cout">
      <text x="5" y="-4" style="fill:#000; stroke:none" class="cell_adder_gen[2].fa">Cout</text>
    </g>
    <g transform="translate(30,30)" s:x="30" s:y="10" s:pid="out0" id="port_adder_gen[2].fa~Sum">
      <text x="5" y="-4" style="fill:#000; stroke:none" class="cell_adder_gen[2].fa">Sum</text>
    </g>
  </g>
  <g s:type="generic" transform="translate(707,451)" s:width="30" s:height="40" id="cell_adder_gen[3].fa">
    <text x="15" y="-4" class="nodelabel cell_adder_gen[3].fa" s:attribute="ref">full_adder</text>
    <rect width="30" height="60" s:generic="body" class="cell_adder_gen[3].fa"/>
    <g transform="translate(0,10)" s:x="0" s:y="10" s:pid="in0" id="port_adder_gen[3].fa~A">
      <text x="-3" y="-4" class="inputPortLabel cell_adder_gen[3].fa">A</text>
    </g>
    <g transform="translate(0,30)" s:x="0" s:y="10" s:pid="in0" id="port_adder_gen[3].fa~B">
      <text x="-3" y="-4" class="inputPortLabel cell_adder_gen[3].fa">B</text>
    </g>
    <g transform="translate(0,50)" s:x="0" s:y="10" s:pid="in0" id="port_adder_gen[3].fa~Cin">
      <text x="-3" y="-4" class="inputPortLabel cell_adder_gen[3].fa">Cin</text>
    </g>
    <g transform="translate(30,10)" s:x="30" s:y="10" s:pid="out0" id="port_adder_gen[3].fa~Cout">
      <text x="5" y="-4" style="fill:#000; stroke:none" class="cell_adder_gen[3].fa">Cout</text>
    </g>
    <g transform="translate(30,30)" s:x="30" s:y="10" s:pid="out0" id="port_adder_gen[3].fa~Sum">
      <text x="5" y="-4" style="fill:#000; stroke:none" class="cell_adder_gen[3].fa">Sum</text>
    </g>
  </g>
  <g s:type="generic" transform="translate(851,513.5)" s:width="30" s:height="40" id="cell_adder_gen[4].fa">
    <text x="15" y="-4" class="nodelabel cell_adder_gen[4].fa" s:attribute="ref">full_adder</text>
    <rect width="30" height="60" s:generic="body" class="cell_adder_gen[4].fa"/>
    <g transform="translate(0,10)" s:x="0" s:y="10" s:pid="in0" id="port_adder_gen[4].fa~A">
      <text x="-3" y="-4" class="inputPortLabel cell_adder_gen[4].fa">A</text>
    </g>
    <g transform="translate(0,30)" s:x="0" s:y="10" s:pid="in0" id="port_adder_gen[4].fa~B">
      <text x="-3" y="-4" class="inputPortLabel cell_adder_gen[4].fa">B</text>
    </g>
    <g transform="translate(0,50)" s:x="0" s:y="10" s:pid="in0" id="port_adder_gen[4].fa~Cin">
      <text x="-3" y="-4" class="inputPortLabel cell_adder_gen[4].fa">Cin</text>
    </g>
    <g transform="translate(30,10)" s:x="30" s:y="10" s:pid="out0" id="port_adder_gen[4].fa~Cout">
      <text x="5" y="-4" style="fill:#000; stroke:none" class="cell_adder_gen[4].fa">Cout</text>
    </g>
    <g transform="translate(30,30)" s:x="30" s:y="10" s:pid="out0" id="port_adder_gen[4].fa~Sum">
      <text x="5" y="-4" style="fill:#000; stroke:none" class="cell_adder_gen[4].fa">Sum</text>
    </g>
  </g>
  <g s:type="generic" transform="translate(995,576)" s:width="30" s:height="40" id="cell_adder_gen[5].fa">
    <text x="15" y="-4" class="nodelabel cell_adder_gen[5].fa" s:attribute="ref">full_adder</text>
    <rect width="30" height="60" s:generic="body" class="cell_adder_gen[5].fa"/>
    <g transform="translate(0,10)" s:x="0" s:y="10" s:pid="in0" id="port_adder_gen[5].fa~A">
      <text x="-3" y="-4" class="inputPortLabel cell_adder_gen[5].fa">A</text>
    </g>
    <g transform="translate(0,30)" s:x="0" s:y="10" s:pid="in0" id="port_adder_gen[5].fa~B">
      <text x="-3" y="-4" class="inputPortLabel cell_adder_gen[5].fa">B</text>
    </g>
    <g transform="translate(0,50)" s:x="0" s:y="10" s:pid="in0" id="port_adder_gen[5].fa~Cin">
      <text x="-3" y="-4" class="inputPortLabel cell_adder_gen[5].fa">Cin</text>
    </g>
    <g transform="translate(30,10)" s:x="30" s:y="10" s:pid="out0" id="port_adder_gen[5].fa~Cout">
      <text x="5" y="-4" style="fill:#000; stroke:none" class="cell_adder_gen[5].fa">Cout</text>
    </g>
    <g transform="translate(30,30)" s:x="30" s:y="10" s:pid="out0" id="port_adder_gen[5].fa~Sum">
      <text x="5" y="-4" style="fill:#000; stroke:none" class="cell_adder_gen[5].fa">Sum</text>
    </g>
  </g>
  <g s:type="generic" transform="translate(1139,536)" s:width="30" s:height="40" id="cell_adder_gen[6].fa">
    <text x="15" y="-4" class="nodelabel cell_adder_gen[6].fa" s:attribute="ref">full_adder</text>
    <rect width="30" height="60" s:generic="body" class="cell_adder_gen[6].fa"/>
    <g transform="translate(0,10)" s:x="0" s:y="10" s:pid="in0" id="port_adder_gen[6].fa~A">
      <text x="-3" y="-4" class="inputPortLabel cell_adder_gen[6].fa">A</text>
    </g>
    <g transform="translate(0,30)" s:x="0" s:y="10" s:pid="in0" id="port_adder_gen[6].fa~B">
      <text x="-3" y="-4" class="inputPortLabel cell_adder_gen[6].fa">B</text>
    </g>
    <g transform="translate(0,50)" s:x="0" s:y="10" s:pid="in0" id="port_adder_gen[6].fa~Cin">
      <text x="-3" y="-4" class="inputPortLabel cell_adder_gen[6].fa">Cin</text>
    </g>
    <g transform="translate(30,10)" s:x="30" s:y="10" s:pid="out0" id="port_adder_gen[6].fa~Cout">
      <text x="5" y="-4" style="fill:#000; stroke:none" class="cell_adder_gen[6].fa">Cout</text>
    </g>
    <g transform="translate(30,30)" s:x="30" s:y="10" s:pid="out0" id="port_adder_gen[6].fa~Sum">
      <text x="5" y="-4" style="fill:#000; stroke:none" class="cell_adder_gen[6].fa">Sum</text>
    </g>
  </g>
  <g s:type="generic" transform="translate(1283,587.5)" s:width="30" s:height="40" id="cell_adder_gen[7].fa">
    <text x="15" y="-4" class="nodelabel cell_adder_gen[7].fa" s:attribute="ref">full_adder</text>
    <rect width="30" height="60" s:generic="body" class="cell_adder_gen[7].fa"/>
    <g transform="translate(0,10)" s:x="0" s:y="10" s:pid="in0" id="port_adder_gen[7].fa~A">
      <text x="-3" y="-4" class="inputPortLabel cell_adder_gen[7].fa">A</text>
    </g>
    <g transform="translate(0,30)" s:x="0" s:y="10" s:pid="in0" id="port_adder_gen[7].fa~B">
      <text x="-3" y="-4" class="inputPortLabel cell_adder_gen[7].fa">B</text>
    </g>
    <g transform="translate(0,50)" s:x="0" s:y="10" s:pid="in0" id="port_adder_gen[7].fa~Cin">
      <text x="-3" y="-4" class="inputPortLabel cell_adder_gen[7].fa">Cin</text>
    </g>
    <g transform="translate(30,10)" s:x="30" s:y="10" s:pid="out0" id="port_adder_gen[7].fa~Cout">
      <text x="5" y="-4" style="fill:#000; stroke:none" class="cell_adder_gen[7].fa">Cout</text>
    </g>
    <g transform="translate(30,30)" s:x="30" s:y="10" s:pid="out0" id="port_adder_gen[7].fa~Sum">
      <text x="5" y="-4" style="fill:#000; stroke:none" class="cell_adder_gen[7].fa">Sum</text>
    </g>
  </g>
  <g s:type="generic" transform="translate(309,76.5)" s:width="30" s:height="40" id="cell_fa0">
    <text x="15" y="-4" class="nodelabel cell_fa0" s:attribute="ref">full_adder</text>
    <rect width="30" height="60" s:generic="body" class="cell_fa0"/>
    <g transform="translate(0,10)" s:x="0" s:y="10" s:pid="in0" id="port_fa0~A">
      <text x="-3" y="-4" class="inputPortLabel cell_fa0">A</text>
    </g>
    <g transform="translate(0,30)" s:x="0" s:y="10" s:pid="in0" id="port_fa0~B">
      <text x="-3" y="-4" class="inputPortLabel cell_fa0">B</text>
    </g>
    <g transform="translate(0,50)" s:x="0" s:y="10" s:pid="in0" id="port_fa0~Cin">
      <text x="-3" y="-4" class="inputPortLabel cell_fa0">Cin</text>
    </g>
    <g transform="translate(30,10)" s:x="30" s:y="10" s:pid="out0" id="port_fa0~Cout">
      <text x="5" y="-4" style="fill:#000; stroke:none" class="cell_fa0">Cout</text>
    </g>
    <g transform="translate(30,30)" s:x="30" s:y="10" s:pid="out0" id="port_fa0~Sum">
      <text x="5" y="-4" style="fill:#000; stroke:none" class="cell_fa0">Sum</text>
    </g>
  </g>
  <g s:type="inputExt" transform="translate(77,22)" s:width="30" s:height="20" id="cell_A">
    <text x="15" y="-4" class="nodelabel cell_A" s:attribute="ref">A</text>
    <s:alias val="$_inputExt_"/>
    <path d="M0,0 L0,20 L15,20 L30,10 L15,0 Z" class="cell_A"/>
    <g s:x="28" s:y="10" s:pid="Y"/>
  </g>
  <g s:type="inputExt" transform="translate(12,381.5)" s:width="30" s:height="20" id="cell_B">
    <text x="15" y="-4" class="nodelabel cell_B" s:attribute="ref">B</text>
    <s:alias val="$_inputExt_"/>
    <path d="M0,0 L0,20 L15,20 L30,10 L15,0 Z" class="cell_B"/>
    <g s:x="28" s:y="10" s:pid="Y"/>
  </g>
  <g s:type="inputExt" transform="translate(77,87)" s:width="30" s:height="20" id="cell_Sub">
    <text x="15" y="-4" class="nodelabel cell_Sub" s:attribute="ref">Sub</text>
    <s:alias val="$_inputExt_"/>
    <path d="M0,0 L0,20 L15,20 L30,10 L15,0 Z" class="cell_Sub"/>
    <g s:x="28" s:y="10" s:pid="Y"/>
  </g>
  <g s:type="outputExt" transform="translate(1451,129.5)" s:width="30" s:height="20" id="cell_Sum">
    <text x="15" y="-4" class="nodelabel cell_Sum" s:attribute="ref">Sum</text>
    <s:alias val="$_outputExt_"/>
    <path d="M30,0 L30,20 L15,20 L0,10 L15,0 Z" class="cell_Sum"/>
    <g s:x="0" s:y="10" s:pid="A"/>
  </g>
  <g s:type="outputExt" transform="translate(1451,588)" s:width="30" s:height="20" id="cell_CarryOut">
    <text x="15" y="-4" class="nodelabel cell_CarryOut" s:attribute="ref">CarryOut</text>
    <s:alias val="$_outputExt_"/>
    <path d="M30,0 L30,20 L15,20 L0,10 L15,0 Z" class="cell_CarryOut"/>
    <g s:x="0" s:y="10" s:pid="A"/>
  </g>
  <g s:type="join" transform="translate(1408,119)" s:width="4" s:height="40" id="cell_$join$,19,20,21,22,23,24,25,26,">
    <rect width="5" height="160" class="splitjoinBody" s:generic="body"/>
    <s:alias val="$_join_"/>
    <g s:x="5" s:y="20" s:pid="out"/>
    <g transform="translate(0,10)" s:x="0" s:y="10" s:pid="in0">
      <text x="-3" y="-4" class="inputPortLabel">0</text>
    </g>
    <g transform="translate(0,30)" s:x="0" s:y="10" s:pid="in0">
      <text x="-3" y="-4" class="inputPortLabel">1</text>
    </g>
    <g transform="translate(0,50)" s:x="0" s:y="10" s:pid="in0">
      <text x="-3" y="-4" class="inputPortLabel">2</text>
    </g>
    <g transform="translate(0,70)" s:x="0" s:y="10" s:pid="in0">
      <text x="-3" y="-4" class="inputPortLabel">3</text>
    </g>
    <g transform="translate(0,90)" s:x="0" s:y="10" s:pid="in0">
      <text x="-3" y="-4" class="inputPortLabel">4</text>
    </g>
    <g transform="translate(0,110)" s:x="0" s:y="10" s:pid="in0">
      <text x="-3" y="-4" class="inputPortLabel">5</text>
    </g>
    <g transform="translate(0,130)" s:x="0" s:y="10" s:pid="in0">
      <text x="-3" y="-4" class="inputPortLabel">6</text>
    </g>
    <g transform="translate(0,150)" s:x="0" s:y="10" s:pid="in0">
      <text x="-3" y="-4" class="inputPortLabel">7</text>
    </g>
  </g>
  <g s:type="split" transform="translate(93.42857142857143,371)" s:width="5" s:height="40" id="cell_$split$,10,11,12,13,14,15,16,17,">
    <rect width="5" height="160" class="splitjoinBody" s:generic="body"/>
    <s:alias val="$_split_"/>
    <g s:x="0" s:y="20" s:pid="in"/>
    <g transform="translate(4,10)" s:x="4" s:y="10" s:pid="out0">
      <text x="5" y="-4">0</text>
    </g>
    <g transform="translate(4,30)" s:x="4" s:y="10" s:pid="out0">
      <text x="5" y="-4">1</text>
    </g>
    <g transform="translate(4,50)" s:x="4" s:y="10" s:pid="out0">
      <text x="5" y="-4">2</text>
    </g>
    <g transform="translate(4,70)" s:x="4" s:y="10" s:pid="out0">
      <text x="5" y="-4">3</text>
    </g>
    <g transform="translate(4,90)" s:x="4" s:y="10" s:pid="out0">
      <text x="5" y="-4">4</text>
    </g>
    <g transform="translate(4,110)" s:x="4" s:y="10" s:pid="out0">
      <text x="5" y="-4">5</text>
    </g>
    <g transform="translate(4,130)" s:x="4" s:y="10" s:pid="out0">
      <text x="5" y="-4">6</text>
    </g>
    <g transform="translate(4,150)" s:x="4" s:y="10" s:pid="out0">
      <text x="5" y="-4">7</text>
    </g>
  </g>
  <g s:type="split" transform="translate(196,150)" s:width="5" s:height="40" id="cell_$split$,2,3,4,5,6,7,8,9,">
    <rect width="5" height="160" class="splitjoinBody" s:generic="body"/>
    <s:alias val="$_split_"/>
    <g s:x="0" s:y="20" s:pid="in"/>
    <g transform="translate(4,10)" s:x="4" s:y="10" s:pid="out0">
      <text x="5" y="-4">1</text>
    </g>
    <g transform="translate(4,30)" s:x="4" s:y="10" s:pid="out0">
      <text x="5" y="-4">2</text>
    </g>
    <g transform="translate(4,50)" s:x="4" s:y="10" s:pid="out0">
      <text x="5" y="-4">3</text>
    </g>
    <g transform="translate(4,70)" s:x="4" s:y="10" s:pid="out0">
      <text x="5" y="-4">4</text>
    </g>
    <g transform="translate(4,90)" s:x="4" s:y="10" s:pid="out0">
      <text x="5" y="-4">5</text>
    </g>
    <g transform="translate(4,110)" s:x="4" s:y="10" s:pid="out0">
      <text x="5" y="-4">6</text>
    </g>
    <g transform="translate(4,130)" s:x="4" s:y="10" s:pid="out0">
      <text x="5" y="-4">7</text>
    </g>
    <g transform="translate(4,150)" s:x="4" s:y="10" s:pid="out0">
      <text x="5" y="-4">0</text>
    </g>
  </g>
  <line x1="105" x2="180" y1="97" y2="97" class="net_18"/>
  <line x1="105" x2="157" y1="97" y2="97" class="net_18"/>
  <line x1="157" x2="157" y1="97" y2="412.5" class="net_18"/>
  <line x1="157" x2="250" y1="412.5" y2="412.5" class="net_18"/>
  <line x1="250" x2="250" y1="412.5" y2="416.5" class="net_18"/>
  <circle cx="157" cy="97" r="2" style="fill:#000" class="net_18"/>
  <circle cx="157" cy="412.5" r="2" style="fill:#000" class="net_18"/>
  <line x1="250" x2="313.3333333333333" y1="416.5" y2="416.5" class="net_18"/>
  <line x1="105" x2="157" y1="97" y2="97" class="net_18"/>
  <line x1="157" x2="157" y1="97" y2="442.5" class="net_18"/>
  <line x1="157" x2="375" y1="442.5" y2="442.5" class="net_18"/>
  <line x1="375" x2="375" y1="442.5" y2="446.5" class="net_18"/>
  <circle cx="157" cy="442.5" r="2" style="fill:#000" class="net_18"/>
  <line x1="375" x2="434.6666666666667" y1="446.5" y2="446.5" class="net_18"/>
  <line x1="105" x2="157" y1="97" y2="97" class="net_18"/>
  <line x1="157" x2="157" y1="97" y2="488.5" class="net_18"/>
  <line x1="157" x2="519" y1="488.5" y2="488.5" class="net_18"/>
  <line x1="519" x2="519" y1="488.5" y2="492.5" class="net_18"/>
  <circle cx="157" cy="488.5" r="2" style="fill:#000" class="net_18"/>
  <line x1="519" x2="578.6666666666666" y1="492.5" y2="492.5" class="net_18"/>
  <line x1="105" x2="157" y1="97" y2="97" class="net_18"/>
  <line x1="157" x2="157" y1="97" y2="551" class="net_18"/>
  <line x1="157" x2="663" y1="551" y2="551" class="net_18"/>
  <line x1="663" x2="663" y1="551" y2="555" class="net_18"/>
  <circle cx="157" cy="551" r="2" style="fill:#000" class="net_18"/>
  <line x1="663" x2="722.6666666666666" y1="555" y2="555" class="net_18"/>
  <line x1="105" x2="157" y1="97" y2="97" class="net_18"/>
  <line x1="157" x2="157" y1="97" y2="613.5" class="net_18"/>
  <line x1="157" x2="807" y1="613.5" y2="613.5" class="net_18"/>
  <line x1="807" x2="807" y1="613.5" y2="617.5" class="net_18"/>
  <circle cx="157" cy="613.5" r="2" style="fill:#000" class="net_18"/>
  <line x1="807" x2="866.6666666666666" y1="617.5" y2="617.5" class="net_18"/>
  <line x1="105" x2="157" y1="97" y2="97" class="net_18"/>
  <line x1="157" x2="157" y1="97" y2="690" class="net_18"/>
  <line x1="157" x2="951" y1="690" y2="690" class="net_18"/>
  <line x1="951" x2="951" y1="690" y2="694" class="net_18"/>
  <circle cx="157" cy="690" r="2" style="fill:#000" class="net_18"/>
  <line x1="951" x2="1010.6666666666666" y1="694" y2="694" class="net_18"/>
  <line x1="105" x2="157" y1="97" y2="97" class="net_18"/>
  <line x1="157" x2="157" y1="97" y2="720" class="net_18"/>
  <line x1="157" x2="1095" y1="720" y2="720" class="net_18"/>
  <line x1="1095" x2="1095" y1="720" y2="724" class="net_18"/>
  <line x1="1095" x2="1154.6666666666667" y1="724" y2="724" class="net_18"/>
  <line x1="105" x2="157" y1="97" y2="97" class="net_18"/>
  <line x1="157" x2="157" y1="97" y2="127" class="net_18"/>
  <circle cx="157" cy="127" r="2" style="fill:#000" class="net_18"/>
  <line x1="157" x2="309" y1="127" y2="127" class="net_18"/>
  <line x1="97.92857142857143" x2="97.92857142857143" y1="381" y2="117" class="net_10"/>
  <line x1="97.92857142857143" x2="117" y1="117" y2="117" class="net_10"/>
  <line x1="117" x2="117" y1="117" y2="112" class="net_10"/>
  <line x1="117" x2="180" y1="112" y2="112" class="net_10"/>
  <line x1="98.42857142857143" x2="313.3333333333333" y1="401.5" y2="401.5" class="net_11"/>
  <line x1="98.42857142857143" x2="117" y1="421.5" y2="421.5" class="net_12"/>
  <line x1="117" x2="117" y1="421.5" y2="431.5" class="net_12"/>
  <line x1="117" x2="434.6666666666667" y1="431.5" y2="431.5" class="net_12"/>
  <line x1="98.42857142857143" x2="147" y1="441.5" y2="441.5" class="net_13"/>
  <line x1="147" x2="147" y1="441.5" y2="477.5" class="net_13"/>
  <line x1="147" x2="578.6666666666666" y1="477.5" y2="477.5" class="net_13"/>
  <line x1="98.42857142857143" x2="137" y1="461.5" y2="461.5" class="net_14"/>
  <line x1="137" x2="137" y1="461.5" y2="540" class="net_14"/>
  <line x1="137" x2="722.6666666666666" y1="540" y2="540" class="net_14"/>
  <line x1="98.42857142857143" x2="127" y1="481.5" y2="481.5" class="net_15"/>
  <line x1="127" x2="127" y1="481.5" y2="602.5" class="net_15"/>
  <line x1="127" x2="866.6666666666666" y1="602.5" y2="602.5" class="net_15"/>
  <line x1="98.42857142857143" x2="117" y1="501.5" y2="501.5" class="net_16"/>
  <line x1="117" x2="117" y1="501.5" y2="679" class="net_16"/>
  <line x1="117" x2="1010.6666666666666" y1="679" y2="679" class="net_16"/>
  <line x1="97.92857142857143" x2="97.92857142857143" y1="522" y2="709" class="net_17"/>
  <line x1="97.92857142857143" x2="1154.6666666666667" y1="709" y2="709" class="net_17"/>
  <line x1="200.5" x2="200.5" y1="160" y2="138" class="net_3"/>
  <line x1="200.5" x2="280" y1="138" y2="138" class="net_3"/>
  <line x1="280" x2="280" y1="138" y2="323" class="net_3"/>
  <line x1="280" x2="419" y1="323" y2="323" class="net_3"/>
  <line x1="343.3333333333333" x2="375" y1="409" y2="409" class="net_29"/>
  <line x1="375" x2="375" y1="409" y2="343" class="net_29"/>
  <line x1="375" x2="419" y1="343" y2="343" class="net_29"/>
  <line x1="340" x2="385" y1="87" y2="87" class="net_36"/>
  <line x1="385" x2="385" y1="87" y2="363" class="net_36"/>
  <line x1="385" x2="419" y1="363" y2="363" class="net_36"/>
  <line x1="201" x2="250" y1="180.5" y2="180.5" class="net_4"/>
  <line x1="250" x2="250" y1="180.5" y2="385.5" class="net_4"/>
  <line x1="250" x2="563" y1="385.5" y2="385.5" class="net_4"/>
  <line x1="464.6666666666667" x2="519" y1="439" y2="439" class="net_30"/>
  <line x1="519" x2="519" y1="439" y2="405.5" class="net_30"/>
  <line x1="519" x2="563" y1="405.5" y2="405.5" class="net_30"/>
  <line x1="450" x2="529" y1="323" y2="323" class="net_37"/>
  <line x1="529" x2="529" y1="323" y2="425.5" class="net_37"/>
  <line x1="529" x2="563" y1="425.5" y2="425.5" class="net_37"/>
  <line x1="201" x2="240" y1="200.5" y2="200.5" class="net_5"/>
  <line x1="240" x2="240" y1="200.5" y2="461.5" class="net_5"/>
  <line x1="240" x2="707" y1="461.5" y2="461.5" class="net_5"/>
  <line x1="608.6666666666666" x2="663" y1="485" y2="485" class="net_31"/>
  <line x1="663" x2="663" y1="485" y2="481.5" class="net_31"/>
  <line x1="663" x2="707" y1="481.5" y2="481.5" class="net_31"/>
  <line x1="594" x2="673" y1="385.5" y2="385.5" class="net_38"/>
  <line x1="673" x2="673" y1="385.5" y2="501.5" class="net_38"/>
  <line x1="673" x2="707" y1="501.5" y2="501.5" class="net_38"/>
  <line x1="201" x2="230" y1="220.5" y2="220.5" class="net_6"/>
  <line x1="230" x2="230" y1="220.5" y2="524" class="net_6"/>
  <line x1="230" x2="851" y1="524" y2="524" class="net_6"/>
  <line x1="752.6666666666666" x2="807" y1="547.5" y2="547.5" class="net_32"/>
  <line x1="807" x2="807" y1="547.5" y2="544" class="net_32"/>
  <line x1="807" x2="851" y1="544" y2="544" class="net_32"/>
  <line x1="738" x2="817" y1="461.5" y2="461.5" class="net_39"/>
  <line x1="817" x2="817" y1="461.5" y2="564" class="net_39"/>
  <line x1="817" x2="851" y1="564" y2="564" class="net_39"/>
  <line x1="201" x2="220" y1="240.5" y2="240.5" class="net_7"/>
  <line x1="220" x2="220" y1="240.5" y2="586.5" class="net_7"/>
  <line x1="220" x2="995" y1="586.5" y2="586.5" class="net_7"/>
  <line x1="896.6666666666666" x2="951" y1="610" y2="610" class="net_33"/>
  <line x1="951" x2="951" y1="610" y2="606.5" class="net_33"/>
  <line x1="951" x2="995" y1="606.5" y2="606.5" class="net_33"/>
  <line x1="882" x2="961" y1="524" y2="524" class="net_40"/>
  <line x1="961" x2="961" y1="524" y2="626.5" class="net_40"/>
  <line x1="961" x2="995" y1="626.5" y2="626.5" class="net_40"/>
  <line x1="201" x2="270" y1="260.5" y2="260.5" class="net_8"/>
  <line x1="270" x2="270" y1="260.5" y2="291.5" class="net_8"/>
  <line x1="270" x2="1105" y1="291.5" y2="291.5" class="net_8"/>
  <line x1="1105" x2="1105" y1="291.5" y2="546.5" class="net_8"/>
  <line x1="1105" x2="1139" y1="546.5" y2="546.5" class="net_8"/>
  <line x1="1040.6666666666665" x2="1105" y1="686.5" y2="686.5" class="net_34"/>
  <line x1="1105" x2="1105" y1="686.5" y2="566.5" class="net_34"/>
  <line x1="1105" x2="1139" y1="566.5" y2="566.5" class="net_34"/>
  <line x1="1026" x2="1139" y1="586.5" y2="586.5" class="net_41"/>
  <line x1="201" x2="1249" y1="280.5" y2="280.5" class="net_9"/>
  <line x1="1249" x2="1249" y1="280.5" y2="598" class="net_9"/>
  <line x1="1249" x2="1283" y1="598" y2="598" class="net_9"/>
  <line x1="1184.6666666666667" x2="1249" y1="716.5" y2="716.5" class="net_35"/>
  <line x1="1249" x2="1249" y1="716.5" y2="618" class="net_35"/>
  <line x1="1249" x2="1283" y1="618" y2="618" class="net_35"/>
  <line x1="1170" x2="1239" y1="546.5" y2="546.5" class="net_42"/>
  <line x1="1239" x2="1239" y1="546.5" y2="638" class="net_42"/>
  <line x1="1239" x2="1283" y1="638" y2="638" class="net_42"/>
  <line x1="200.5" x2="200.5" y1="301" y2="320" class="net_2"/>
  <line x1="200.5" x2="260" y1="320" y2="320" class="net_2"/>
  <line x1="260" x2="260" y1="320" y2="87" class="net_2"/>
  <line x1="260" x2="309" y1="87" y2="87" class="net_2"/>
  <line x1="210" x2="270" y1="104.5" y2="104.5" class="net_28"/>
  <line x1="270" x2="270" y1="104.5" y2="107" class="net_28"/>
  <line x1="270" x2="309" y1="107" y2="107" class="net_28"/>
  <line x1="1414" x2="1451" y1="139.5" y2="139.5" class="net_19,20,21,22,23,24,25,26"/>
  <line x1="1314" x2="1451" y1="598" y2="598" class="net_27"/>
  <line x1="340" x2="1408.5" y1="107" y2="107" class="net_19"/>
  <line x1="1408.5" x2="1408.5" y1="107" y2="129" class="net_19"/>
  <line x1="450" x2="519" y1="343" y2="343" class="net_20"/>
  <line x1="519" x2="519" y1="343" y2="158.5" class="net_20"/>
  <line x1="519" x2="1383" y1="158.5" y2="158.5" class="net_20"/>
  <line x1="1383" x2="1383" y1="158.5" y2="149.5" class="net_20"/>
  <line x1="1383" x2="1408" y1="149.5" y2="149.5" class="net_20"/>
  <line x1="594" x2="663" y1="405.5" y2="405.5" class="net_21"/>
  <line x1="663" x2="663" y1="405.5" y2="169.5" class="net_21"/>
  <line x1="663" x2="1408" y1="169.5" y2="169.5" class="net_21"/>
  <line x1="738" x2="807" y1="481.5" y2="481.5" class="net_22"/>
  <line x1="807" x2="807" y1="481.5" y2="189.5" class="net_22"/>
  <line x1="807" x2="1408" y1="189.5" y2="189.5" class="net_22"/>
  <line x1="882" x2="951" y1="544" y2="544" class="net_23"/>
  <line x1="951" x2="951" y1="544" y2="209.5" class="net_23"/>
  <line x1="951" x2="1408" y1="209.5" y2="209.5" class="net_23"/>
  <line x1="1026" x2="1095" y1="606.5" y2="606.5" class="net_24"/>
  <line x1="1095" x2="1095" y1="606.5" y2="229.5" class="net_24"/>
  <line x1="1095" x2="1408" y1="229.5" y2="229.5" class="net_24"/>
  <line x1="1170" x2="1383" y1="566.5" y2="566.5" class="net_25"/>
  <line x1="1383" x2="1383" y1="566.5" y2="249.5" class="net_25"/>
  <line x1="1383" x2="1408" y1="249.5" y2="249.5" class="net_25"/>
  <line x1="1314" x2="1408.5" y1="618" y2="618" class="net_26"/>
  <line x1="1408.5" x2="1408.5" y1="618" y2="270" class="net_26"/>
  <line x1="40" x2="93.42857142857143" y1="391.5" y2="391.5" class="net_10,11,12,13,14,15,16,17"/>
  <line x1="105" x2="167" y1="32" y2="32" class="net_2,3,4,5,6,7,8,9"/>
  <line x1="167" x2="167" y1="32" y2="170.5" class="net_2,3,4,5,6,7,8,9"/>
  <line x1="167" x2="196" y1="170.5" y2="170.5" class="net_2,3,4,5,6,7,8,9"/>
</svg>
