<svg xmlns="http://www.w3.org/2000/svg" xmlns:xlink="http://www.w3.org/1999/xlink" xmlns:s="https://github.com/nturley/netlistsvg" width="310" height="429">
  <style>svg {
    stroke:#000;
    fill:none;
  }
  text {
    fill:#000;
    stroke:none;
    font-size:10px;
    font-weight: bold;
    font-family: "Courier New", monospace;
  }
  .nodelabel {
    text-anchor: middle;
  }
  .inputPortLabel {
    text-anchor: end;
  }
  .splitjoinBody {
    fill:#000;
  }</style>
  <g s:type="not" transform="translate(149,12)" s:width="30" s:height="20" id="cell_$abc$960$auto$blifparse.cc:396:parse_blif$961">
    <s:alias val="$_NOT_"/>
    <s:alias val="$not"/>
    <s:alias val="$logic_not"/>
    <path d="M0,0 L0,20 L20,10 Z" class="cell_$abc$960$auto$blifparse.cc:396:parse_blif$961"/>
    <circle cx="23" cy="10" r="3" class="cell_$abc$960$auto$blifparse.cc:396:parse_blif$961"/>
    <g s:x="0" s:y="10" s:pid="A"/>
    <g s:x="25" s:y="10" s:pid="Y"/>
  </g>
  <g s:type="not" transform="translate(149,67)" s:width="30" s:height="20" id="cell_$abc$960$auto$blifparse.cc:396:parse_blif$962">
    <s:alias val="$_NOT_"/>
    <s:alias val="$not"/>
    <s:alias val="$logic_not"/>
    <path d="M0,0 L0,20 L20,10 Z" class="cell_$abc$960$auto$blifparse.cc:396:parse_blif$962"/>
    <circle cx="23" cy="10" r="3" class="cell_$abc$960$auto$blifparse.cc:396:parse_blif$962"/>
    <g s:x="0" s:y="10" s:pid="A"/>
    <g s:x="25" s:y="10" s:pid="Y"/>
  </g>
  <g s:type="not" transform="translate(149,122)" s:width="30" s:height="20" id="cell_$abc$960$auto$blifparse.cc:396:parse_blif$963">
    <s:alias val="$_NOT_"/>
    <s:alias val="$not"/>
    <s:alias val="$logic_not"/>
    <path d="M0,0 L0,20 L20,10 Z" class="cell_$abc$960$auto$blifparse.cc:396:parse_blif$963"/>
    <circle cx="23" cy="10" r="3" class="cell_$abc$960$auto$blifparse.cc:396:parse_blif$963"/>
    <g s:x="0" s:y="10" s:pid="A"/>
    <g s:x="25" s:y="10" s:pid="Y"/>
  </g>
  <g s:type="not" transform="translate(149,177)" s:width="30" s:height="20" id="cell_$abc$960$auto$blifparse.cc:396:parse_blif$964">
    <s:alias val="$_NOT_"/>
    <s:alias val="$not"/>
    <s:alias val="$logic_not"/>
    <path d="M0,0 L0,20 L20,10 Z" class="cell_$abc$960$auto$blifparse.cc:396:parse_blif$964"/>
    <circle cx="23" cy="10" r="3" class="cell_$abc$960$auto$blifparse.cc:396:parse_blif$964"/>
    <g s:x="0" s:y="10" s:pid="A"/>
    <g s:x="25" s:y="10" s:pid="Y"/>
  </g>
  <g s:type="not" transform="translate(149,232)" s:width="30" s:height="20" id="cell_$abc$960$auto$blifparse.cc:396:parse_blif$965">
    <s:alias val="$_NOT_"/>
    <s:alias val="$not"/>
    <s:alias val="$logic_not"/>
    <path d="M0,0 L0,20 L20,10 Z" class="cell_$abc$960$auto$blifparse.cc:396:parse_blif$965"/>
    <circle cx="23" cy="10" r="3" class="cell_$abc$960$auto$blifparse.cc:396:parse_blif$965"/>
    <g s:x="0" s:y="10" s:pid="A"/>
    <g s:x="25" s:y="10" s:pid="Y"/>
  </g>
  <g s:type="not" transform="translate(149,287)" s:width="30" s:height="20" id="cell_$abc$960$auto$blifparse.cc:396:parse_blif$966">
    <s:alias val="$_NOT_"/>
    <s:alias val="$not"/>
    <s:alias val="$logic_not"/>
    <path d="M0,0 L0,20 L20,10 Z" class="cell_$abc$960$auto$blifparse.cc:396:parse_blif$966"/>
    <circle cx="23" cy="10" r="3" class="cell_$abc$960$auto$blifparse.cc:396:parse_blif$966"/>
    <g s:x="0" s:y="10" s:pid="A"/>
    <g s:x="25" s:y="10" s:pid="Y"/>
  </g>
  <g s:type="not" transform="translate(149,342)" s:width="30" s:height="20" id="cell_$abc$960$auto$blifparse.cc:396:parse_blif$967">
    <s:alias val="$_NOT_"/>
    <s:alias val="$not"/>
    <s:alias val="$logic_not"/>
    <path d="M0,0 L0,20 L20,10 Z" class="cell_$abc$960$auto$blifparse.cc:396:parse_blif$967"/>
    <circle cx="23" cy="10" r="3" class="cell_$abc$960$auto$blifparse.cc:396:parse_blif$967"/>
    <g s:x="0" s:y="10" s:pid="A"/>
    <g s:x="25" s:y="10" s:pid="Y"/>
  </g>
  <g s:type="not" transform="translate(149,397)" s:width="30" s:height="20" id="cell_$abc$960$auto$blifparse.cc:396:parse_blif$968">
    <s:alias val="$_NOT_"/>
    <s:alias val="$not"/>
    <s:alias val="$logic_not"/>
    <path d="M0,0 L0,20 L20,10 Z" class="cell_$abc$960$auto$blifparse.cc:396:parse_blif$968"/>
    <circle cx="23" cy="10" r="3" class="cell_$abc$960$auto$blifparse.cc:396:parse_blif$968"/>
    <g s:x="0" s:y="10" s:pid="A"/>
    <g s:x="25" s:y="10" s:pid="Y"/>
  </g>
  <g s:type="inputExt" transform="translate(12,57)" s:width="30" s:height="20" id="cell_A">
    <text x="15" y="-4" class="nodelabel cell_A" s:attribute="ref">A</text>
    <s:alias val="$_inputExt_"/>
    <path d="M0,0 L0,20 L15,20 L30,10 L15,0 Z" class="cell_A"/>
    <g s:x="28" s:y="10" s:pid="Y"/>
  </g>
  <g s:type="outputExt" transform="translate(262,127)" s:width="30" s:height="20" id="cell_Result">
    <text x="15" y="-4" class="nodelabel cell_Result" s:attribute="ref">Result</text>
    <s:alias val="$_outputExt_"/>
    <path d="M30,0 L30,20 L15,20 L0,10 L15,0 Z" class="cell_Result"/>
    <g s:x="0" s:y="10" s:pid="A"/>
  </g>
  <g s:type="join" transform="translate(219,116.5)" s:width="4" s:height="40" id="cell_$join$,10,11,12,13,14,15,16,17,">
    <rect width="5" height="160" class="splitjoinBody" s:generic="body"/>
    <s:alias val="$_join_"/>
    <g s:x="5" s:y="20" s:pid="out"/>
    <g transform="translate(0,10)" s:x="0" s:y="10" s:pid="in0">
      <text x="-3" y="-4" class="inputPortLabel">0</text>
    </g>
    <g transform="translate(0,30)" s:x="0" s:y="10" s:pid="in0">
      <text x="-3" y="-4" class="inputPortLabel">1</text>
    </g>
    <g transform="translate(0,50)" s:x="0" s:y="10" s:pid="in0">
      <text x="-3" y="-4" class="inputPortLabel">2</text>
    </g>
    <g transform="translate(0,70)" s:x="0" s:y="10" s:pid="in0">
      <text x="-3" y="-4" class="inputPortLabel">3</text>
    </g>
    <g transform="translate(0,90)" s:x="0" s:y="10" s:pid="in0">
      <text x="-3" y="-4" class="inputPortLabel">4</text>
    </g>
    <g transform="translate(0,110)" s:x="0" s:y="10" s:pid="in0">
      <text x="-3" y="-4" class="inputPortLabel">5</text>
    </g>
    <g transform="translate(0,130)" s:x="0" s:y="10" s:pid="in0">
      <text x="-3" y="-4" class="inputPortLabel">6</text>
    </g>
    <g transform="translate(0,150)" s:x="0" s:y="10" s:pid="in0">
      <text x="-3" y="-4" class="inputPortLabel">7</text>
    </g>
  </g>
  <g s:type="split" transform="translate(77,46.5)" s:width="5" s:height="40" id="cell_$split$,2,3,4,5,6,7,8,9,">
    <rect width="5" height="160" class="splitjoinBody" s:generic="body"/>
    <s:alias val="$_split_"/>
    <g s:x="0" s:y="20" s:pid="in"/>
    <g transform="translate(4,10)" s:x="4" s:y="10" s:pid="out0">
      <text x="5" y="-4">0</text>
    </g>
    <g transform="translate(4,30)" s:x="4" s:y="10" s:pid="out0">
      <text x="5" y="-4">1</text>
    </g>
    <g transform="translate(4,50)" s:x="4" s:y="10" s:pid="out0">
      <text x="5" y="-4">2</text>
    </g>
    <g transform="translate(4,70)" s:x="4" s:y="10" s:pid="out0">
      <text x="5" y="-4">3</text>
    </g>
    <g transform="translate(4,90)" s:x="4" s:y="10" s:pid="out0">
      <text x="5" y="-4">4</text>
    </g>
    <g transform="translate(4,110)" s:x="4" s:y="10" s:pid="out0">
      <text x="5" y="-4">5</text>
    </g>
    <g transform="translate(4,130)" s:x="4" s:y="10" s:pid="out0">
      <text x="5" y="-4">6</text>
    </g>
    <g transform="translate(4,150)" s:x="4" s:y="10" s:pid="out0">
      <text x="5" y="-4">7</text>
    </g>
  </g>
  <line x1="81.5" x2="81.5" y1="56.5" y2="22" class="net_2"/>
  <line x1="81.5" x2="149" y1="22" y2="22" class="net_2"/>
  <line x1="82" x2="149" y1="77" y2="77" class="net_3"/>
  <line x1="82" x2="139" y1="97" y2="97" class="net_4"/>
  <line x1="139" x2="139" y1="97" y2="132" class="net_4"/>
  <line x1="139" x2="149" y1="132" y2="132" class="net_4"/>
  <line x1="82" x2="129" y1="117" y2="117" class="net_5"/>
  <line x1="129" x2="129" y1="117" y2="187" class="net_5"/>
  <line x1="129" x2="149" y1="187" y2="187" class="net_5"/>
  <line x1="82" x2="119" y1="137" y2="137" class="net_6"/>
  <line x1="119" x2="119" y1="137" y2="242" class="net_6"/>
  <line x1="119" x2="149" y1="242" y2="242" class="net_6"/>
  <line x1="82" x2="109" y1="157" y2="157" class="net_7"/>
  <line x1="109" x2="109" y1="157" y2="297" class="net_7"/>
  <line x1="109" x2="149" y1="297" y2="297" class="net_7"/>
  <line x1="82" x2="99" y1="177" y2="177" class="net_8"/>
  <line x1="99" x2="99" y1="177" y2="352" class="net_8"/>
  <line x1="99" x2="149" y1="352" y2="352" class="net_8"/>
  <line x1="81.5" x2="81.5" y1="197.5" y2="407" class="net_9"/>
  <line x1="81.5" x2="149" y1="407" y2="407" class="net_9"/>
  <line x1="225" x2="262" y1="137" y2="137" class="net_10,11,12,13,14,15,16,17"/>
  <line x1="174" x2="219.5" y1="22" y2="22" class="net_10"/>
  <line x1="219.5" x2="219.5" y1="22" y2="126.5" class="net_10"/>
  <line x1="174" x2="199" y1="77" y2="77" class="net_11"/>
  <line x1="199" x2="199" y1="77" y2="147" class="net_11"/>
  <line x1="199" x2="219" y1="147" y2="147" class="net_11"/>
  <line x1="174" x2="189" y1="132" y2="132" class="net_12"/>
  <line x1="189" x2="189" y1="132" y2="167" class="net_12"/>
  <line x1="189" x2="219" y1="167" y2="167" class="net_12"/>
  <line x1="174" x2="219" y1="187" y2="187" class="net_13"/>
  <line x1="174" x2="189" y1="242" y2="242" class="net_14"/>
  <line x1="189" x2="189" y1="242" y2="207" class="net_14"/>
  <line x1="189" x2="219" y1="207" y2="207" class="net_14"/>
  <line x1="174" x2="199" y1="297" y2="297" class="net_15"/>
  <line x1="199" x2="199" y1="297" y2="227" class="net_15"/>
  <line x1="199" x2="219" y1="227" y2="227" class="net_15"/>
  <line x1="174" x2="209" y1="352" y2="352" class="net_16"/>
  <line x1="209" x2="209" y1="352" y2="247" class="net_16"/>
  <line x1="209" x2="219" y1="247" y2="247" class="net_16"/>
  <line x1="174" x2="219.5" y1="407" y2="407" class="net_17"/>
  <line x1="219.5" x2="219.5" y1="407" y2="267.5" class="net_17"/>
  <line x1="40" x2="77" y1="67" y2="67" class="net_2,3,4,5,6,7,8,9"/>
</svg>
